<svg width="778" height="502" fill="none" xmlns="http://www.w3.org/2000/svg"><mask id="a" style="mask-type:luminance" maskUnits="userSpaceOnUse" x="15" y="221" width="156" height="113"><path d="m97.668 278.309-.251-.448h.002v-.33h.251l-.002.778zm-.067 28.667-.25-.127.25-.004v.131zm-5.236-31.292a8.777 8.777 0 0 0-.783-2.285c-.952-1.85-2.474-2.884-4.402-2.99-2.056-.116-3.716.886-4.78 2.876a9.474 9.474 0 0 0-.865 2.372l-.478-.001.71-5.424.02-.008.002-.001 10.43.025.684 5.437-.538-.001zm-9.744-.023v-.001l-.82-.001a9.06 9.06 0 0 1 .825-2.252c.98-1.83 2.408-2.758 4.246-2.752l.295.008c1.852.104 3.263 1.061 4.186 2.846a8.58 8.58 0 0 1 .749 2.175l-9.481-.023zm.083-12.638 4.103 3.101-4.999 3.764.896-6.865zm.947-7.254 3.205 2.999-4.089 3.781.884-6.78zm.93-7.161 2.291 2.805-3.153 3.827.863-6.632zm.438-3.353 1.807 1.278-2.171 1.522.364-2.8zm-.644-.432v-.479l5.358.013v.478l-5.358-.012zm.466-1.11 4.43.01-.002.378-4.428-.01v-.378zm.526-.538 3.41.008v.27l-3.41-.008v-.27zm4.067 4.889-2.165-1.531 1.814-1.266.35 2.797zm.9 7.191-3.132-3.842 2.302-2.793.83 6.635zm.916 7.274-4.02-3.76 3.18-2.938.84 6.698zm.674 7.463-9.797-.024 4.894-3.684 4.903 3.708zm-.948-7.007-3.955 2.979-3.964-2.996 7.92.017zm.114-.256-8.122-.018 4.075-3.768 4.047 3.786zm-.943-7.006-3.104 2.872-3.084-2.887 6.188.015zm.035-.254-6.306-.016 3.161-3.838 3.145 3.854zm-.879-7.006-2.266 2.748-2.252-2.759 4.518.011zm-4.044-3.352 3.59.008-1.798 1.26-1.792-1.268zm3.933 3.096-4.293-.012 2.149-1.504 2.144 1.516zm2.977 21.65-4.936-3.733 4.08-3.072.856 6.805zm77.62 2.844v-.078l.022-8.664.473.001v-1.337l-20.317-.048-11.262-.027-.001 1.339h.469l-.05 21.213-1.042-.003.032-13.821v-.345l.028-10.875v-.317l.62.002.007-1.762-2.569-.007-.458-.625h-.002l-17.103-23.291-19.4 23.203h-.002l-.52.625-1.619-.004-.004 1.763.623.001v.317l-.039 15.735-4.515-.009-3.845-30.6.545.001.128-.125.003-.731-.13-.129-.334-.002v-.506l-.129-.128-.366-.002v-.409l-.127-.128-1.72-.004.014-4.911a.46.46 0 0 0 .338-.44.468.468 0 1 0-.934-.002c0 .212.144.385.34.442l-.01 4.91-1.69-.004-.128.128-.001.409h-.403l-.124.128-.002.505h-.338l-.127.127-.001.731.126.129h.542l-3.985 30.58-.82-.003.027-10.577h.323l.003-.913-7.699-.019v-.001l-13.891-.032-.003.914h.322l-.003.284-.02 9.275-.004 1.02-4.289-.009v.093l-3.534-.008.006-4.06h.003v-.189l.027-11.68v-.208l.027-11.66v-.226l.019-7.764h.002v-.228h.441l.006-1.253-1.831-.004-12.51-17.032-14.184 16.969-1.155-.002-.003 1.253.441.001-.084 36.015-7.264-.017-.006 1.834.648.002-.003.33-.13 55.434 26.582.064 15.447.037v-.095l24.147.059v-.001l15.446.037.022-9.121v-.178l.252-.204-.021 9.407 18.752.044 21.677.052v-.076l9.093.021v.002l.308.001 22.208.052.019-7.779v-.144l.035-14.173v-.08l.012-6.511h.073l.041-17.906.47.001.004-1.531-.47-.001v-.103l.028-12.368z" fill="#fff"/></mask><g mask="url(#a)"><path d="m97.668 278.309-.251-.448h.002v-.33h.251l-.002.778zm-.067 28.667-.25-.127.25-.004v.131zm-5.236-31.292a8.777 8.777 0 0 0-.783-2.285c-.952-1.85-2.474-2.884-4.402-2.99-2.056-.116-3.716.886-4.78 2.876a9.474 9.474 0 0 0-.865 2.372l-.478-.001.71-5.424.02-.008.002-.001 10.43.025.684 5.437-.538-.001zm-9.744-.023v-.001l-.82-.001a9.06 9.06 0 0 1 .825-2.252c.98-1.83 2.408-2.758 4.246-2.752l.295.008c1.852.104 3.263 1.061 4.186 2.846a8.58 8.58 0 0 1 .749 2.175l-9.481-.023zm.083-12.638 4.103 3.101-4.999 3.764.896-6.865zm.947-7.254 3.205 2.999-4.089 3.781.884-6.78zm.93-7.161 2.291 2.805-3.153 3.827.863-6.632zm.438-3.353 1.807 1.278-2.171 1.522.364-2.8zm-.644-.432v-.479l5.358.013v.478l-5.358-.012zm.466-1.11 4.43.01-.002.378-4.428-.01v-.378zm.526-.538 3.41.008v.27l-3.41-.008v-.27zm4.067 4.889-2.165-1.531 1.814-1.266.35 2.797zm.9 7.191-3.132-3.842 2.302-2.793.83 6.635zm.916 7.274-4.02-3.76 3.18-2.938.84 6.698zm.674 7.463-9.797-.024 4.894-3.684 4.903 3.708zm-.948-7.007-3.955 2.979-3.964-2.996 7.92.017zm.114-.256-8.122-.018 4.075-3.768 4.047 3.786zm-.943-7.006-3.104 2.872-3.084-2.887 6.188.015zm.035-.254-6.306-.016 3.161-3.838 3.145 3.854zm-.879-7.006-2.266 2.748-2.252-2.759 4.518.011zm-4.044-3.352 3.59.008-1.798 1.26-1.792-1.268zm3.933 3.096-4.293-.012 2.149-1.504 2.144 1.516zm2.977 21.65-4.936-3.733 4.08-3.072.856 6.805zm77.62 2.844v-.078l.022-8.664.473.001v-1.337l-20.317-.048-11.262-.027-.001 1.339h.469l-.05 21.213-1.042-.003.032-13.821v-.345l.028-10.875v-.317l.62.002.007-1.762-2.569-.007-.458-.625h-.002l-17.103-23.291-19.4 23.203h-.002l-.52.625-1.619-.004-.004 1.763.623.001v.317l-.039 15.735-4.515-.009-3.845-30.6.545.001.128-.125.003-.731-.13-.129-.334-.002v-.506l-.129-.128-.366-.002v-.409l-.127-.128-1.72-.004.014-4.911a.46.46 0 0 0 .338-.44.468.468 0 1 0-.934-.002c0 .212.144.385.34.442l-.01 4.91-1.69-.004-.128.128-.001.409h-.403l-.124.128-.002.505h-.338l-.127.127-.001.731.126.129h.542l-3.985 30.58-.82-.003.027-10.577h.323l.003-.913-7.699-.019v-.001l-13.891-.032-.003.914h.322l-.003.284-.02 9.275-.004 1.02-4.289-.009v.093l-3.534-.008.006-4.06h.003v-.189l.027-11.68v-.208l.027-11.66v-.226l.019-7.764h.002v-.228h.441l.006-1.253-1.831-.004-12.51-17.032-14.184 16.969-1.155-.002-.003 1.253.441.001-.084 36.015-7.264-.017-.006 1.834.648.002-.003.33-.13 55.434 26.582.064 15.447.037v-.095l24.147.059v-.001l15.446.037.022-9.121v-.178l.252-.204-.021 9.407 18.752.044 21.677.052v-.076l9.093.021v.002l.308.001 22.208.052.019-7.779v-.144l.035-14.173v-.08l.012-6.511h.073l.041-17.906.47.001.004-1.531-.47-.001v-.103l.028-12.368z" fill="url(#b)"/></g><mask id="c" style="mask-type:luminance" maskUnits="userSpaceOnUse" x="613" y="240" width="150" height="94"><path d="m762.931 248.531.009-3.806-1.408-.002h-.401l.01-4.491-14.197-.033-.235.058-.014.004-.264.07-.042.012-.358.098-.047.014c-.136.038-.288.08-.453.128l-.046.014c-.169.048-.35.103-.544.162l-.048.013-.637.197-.011.006c-.708.222-1.524.496-2.424.821l-.012.004c-.292.107-.593.217-.902.335l-.038.013c-.302.116-.616.237-.932.363l-.054.022c-.316.127-.64.258-.967.395l-.053.021c-.331.14-.668.286-1.008.436l-.026.012a49.176 49.176 0 0 0-5.44 2.803l-.024.012c-.353.215-.705.433-1.056.66l-.038.024c-.35.225-.691.457-1.032.693l-.042.028c-.341.239-.68.483-1.01.735l-.026.019c-1.7 1.286-3.261 2.74-4.537 4.366l-.021.027c-.244.315-.48.637-.703.965l-.036.051c-.217.325-.425.656-.62.995l-.037.061c-.192.339-.374.683-.54 1.033l-.026.056c-.169.358-.322.72-.461 1.091l-.009.029a13.366 13.366 0 0 0-.816 3.742l-.066 27.734-1.738-.001.009-3.156v-.116l.023-9.109h.001v-.088l.037-15.522h.342l.002-.974-1.422-.003-9.722-13.236-10.734 12.841h-.003l-.288.346-.895-.002-.002.975h.344l-.002.177h.002l-.067 27.814-5.645-.015-.003 1.425.5.002v.257l-.037 15.112-6.854-8.477-7.672-.019.01-4.367.712.002-10.118-12.508-15.382-.038-10.232 12.462h.713l-.003.397-16.258-.037-12.959 12.453.905.003-.005.906h.003l-.066 27.167 2.315.005 5.091.014v-.002l1.98.006h.282v.001l3.264.007 4.186.01 1.408.003 3.018.008 2.434.004 2.369.007 10.26.024 6.861.017v-.087h.199v.002l13.929.032 3.178.006 18.925.047v-.072l9.161.021h.286l20.658.051v-.087l10.792.024v.002l25.536.061.006-1.551h.402l1.408.004.011-3.802-1.407-.004v-.002h-.406l.009-3.129 1.811.004.008-3.805-1.81-.004.007-3.131h.404l1.407.003.008-3.804-1.808-.004.006-3.131.403.001v-.001l1.408.003.008-3.803-1.405-.003v-.001h-.407l.008-3.131.407.002v-.002l1.406.006.007-3.804-1.405-.004v-.002h-.406l.01-3.13h.404l1.402.004.014-3.804-1.81-.006.008-3.129h.4l1.408.004.01-3.805-1.811-.004.007-3.13 1.812.003.008-3.803-1.812-.004.008-3.132.402.002 1.407.002.011-3.804-1.407-.002-.404-.002.008-3.13.401.001 1.41.003.009-3.804-1.812-.006.008-3.129 1.812.004.007-3.804-1.406-.004-.404-.001.008-3.13 1.811.004.007-3.802-1.407-.004h-.401l.006-3.132 1.81.004z" fill="#fff"/></mask><g mask="url(#c)"><path d="m762.931 248.531.009-3.806-1.408-.002h-.401l.01-4.491-14.197-.033-.235.058-.014.004-.264.07-.042.012-.358.098-.047.014c-.136.038-.288.08-.453.128l-.046.014c-.169.048-.35.103-.544.162l-.048.013-.637.197-.011.006c-.708.222-1.524.496-2.424.821l-.012.004c-.292.107-.593.217-.902.335l-.038.013c-.302.116-.616.237-.932.363l-.054.022c-.316.127-.64.258-.967.395l-.053.021c-.331.14-.668.286-1.008.436l-.026.012a49.176 49.176 0 0 0-5.44 2.803l-.024.012c-.353.215-.705.433-1.056.66l-.038.024c-.35.225-.691.457-1.032.693l-.042.028c-.341.239-.68.483-1.01.735l-.026.019c-1.7 1.286-3.261 2.74-4.537 4.366l-.021.027c-.244.315-.48.637-.703.965l-.036.051c-.217.325-.425.656-.62.995l-.037.061c-.192.339-.374.683-.54 1.033l-.026.056c-.169.358-.322.72-.461 1.091l-.009.029a13.366 13.366 0 0 0-.816 3.742l-.066 27.734-1.738-.001.009-3.156v-.116l.023-9.109h.001v-.088l.037-15.522h.342l.002-.974-1.422-.003-9.722-13.236-10.734 12.841h-.003l-.288.346-.895-.002-.002.975h.344l-.002.177h.002l-.067 27.814-5.645-.015-.003 1.425.5.002v.257l-.037 15.112-6.854-8.477-7.672-.019.01-4.367.712.002-10.118-12.508-15.382-.038-10.232 12.462h.713l-.003.397-16.258-.037-12.959 12.453.905.003-.005.906h.003l-.066 27.167 2.315.005 5.091.014v-.002l1.98.006h.282v.001l3.264.007 4.186.01 1.408.003 3.018.008 2.434.004 2.369.007 10.26.024 6.861.017v-.087h.199v.002l13.929.032 3.178.006 18.925.047v-.072l9.161.021h.286l20.658.051v-.087l10.792.024v.002l25.536.061.006-1.551h.402l1.408.004.011-3.802-1.407-.004v-.002h-.406l.009-3.129 1.811.004.008-3.805-1.81-.004.007-3.131h.404l1.407.003.008-3.804-1.808-.004.006-3.131.403.001v-.001l1.408.003.008-3.803-1.405-.003v-.001h-.407l.008-3.131.407.002v-.002l1.406.006.007-3.804-1.405-.004v-.002h-.406l.01-3.13h.404l1.402.004.014-3.804-1.81-.006.008-3.129h.4l1.408.004.01-3.805-1.811-.004.007-3.13 1.812.003.008-3.803-1.812-.004.008-3.132.402.002 1.407.002.011-3.804-1.407-.002-.404-.002.008-3.13.401.001 1.41.003.009-3.804-1.812-.006.008-3.129 1.812.004.007-3.804-1.406-.004-.404-.001.008-3.13 1.811.004.007-3.802-1.407-.004h-.401l.006-3.132 1.81.004z" fill="url(#d)"/></g><mask id="e" style="mask-type:luminance" maskUnits="userSpaceOnUse" x="146" y="192" width="494" height="144"><path d="m371.221 324.581.014-5.568.113.002v.154l-.011 5.023v.552h-.116v-.163zm10.483-2.748.008-.002.003-.002 4.757.014.313 2.945h-.245a5.33 5.33 0 0 0-.356-1.237c-.435-1.003-1.129-1.562-2.008-1.62-.937-.064-1.697.478-2.181 1.558-.227.499-.34.991-.395 1.284h-.219l.323-2.94zm.431-3.902 1.869 1.678-2.279 2.04.41-3.718zm.429-3.928 1.464 1.622-1.867 2.047.403-3.669zm.424-3.879 1.047 1.519-1.439 2.07.392-3.589zm.2-1.816.825.692-.989.823.164-1.515zm-.293-.237v-.259l.154.001h.111l2.18.007v.26l-2.445-.009zm.213-.599 2.021.004v.207l-1.013-.004-1.012-.002.004-.205zm.239-.291 1.556.004v.147l-1.556-.004v-.147zm1.854 2.648-.986-.829.826-.687.16 1.516zm.41 3.895-1.424-2.081 1.049-1.514.375 3.595zm.418 3.939-1.83-2.038 1.45-1.592.38 3.63zm.311 4.041-4.472-.012 2.233-1.995 2.239 2.007zm-.435-3.795-1.804 1.616-1.808-1.625 3.612.009zm.055-.137-3.708-.012 1.863-2.039 1.845 2.051zm-.432-3.797-1.413 1.556-1.412-1.562 2.825.006zm.015-.136-2.878-.008 1.446-2.079 1.432 2.087zm-.396-3.796-1.036 1.489-1.028-1.493 2.064.004zm-1.848-1.812 1.636.002-.819.682-.817-.684zm1.792 1.674-1.959-.005.984-.815.975.82zm1.362 11.727-2.254-2.023 1.862-1.662.392 3.685zm76.508-49.373.012-5.756h.116v.162l-.009 5.191v.572h-.119v-.169zm10.835-2.84.009-.003.006-.003 4.917.016.323 3.043h-.251a5.536 5.536 0 0 0-.372-1.279c-.448-1.036-1.169-1.614-2.075-1.674-.969-.066-1.753.494-2.258 1.61a5.957 5.957 0 0 0-.403 1.33h-.229l.333-3.04zm.444-4.038 1.939 1.738-2.362 2.11.423-3.848zm.448-4.061 1.511 1.681-1.927 2.116.416-3.797zm.439-4.008 1.081 1.569-1.488 2.144.407-3.713zm.206-1.879.851.716-1.021.851.17-1.567zm-.304-.241v-.268h.276l2.252.007v.265l-2.528-.004zm.222-.62 2.086.005v.21l-1.045-.004-1.044-.003.003-.208zm.246-.303 1.608.003v.153l-1.608-.005v-.151zm1.916 2.736-1.018-.856.852-.712.166 1.568zm.43 4.026-1.479-2.15 1.087-1.564.392 3.714zm.43 4.073-1.897-2.103 1.496-1.645.401 3.748zm.316 4.181-4.621-.014 2.311-2.06 2.31 2.074zm-.445-3.924-1.865 1.668-1.874-1.678 3.739.01zm.053-.142-3.832-.01 1.924-2.11 1.908 2.12zm-.446-3.924-1.462 1.609-1.457-1.616 2.919.007zm.016-.142-2.975-.01 1.495-2.147 1.48 2.157zm-.411-3.924-1.069 1.542-1.067-1.547 2.136.005zm-1.913-1.876 1.694.003-.845.707-.849-.71zm1.858 1.732-2.029-.004 1.02-.844 1.009.848zm1.403 12.124-2.325-2.09 1.925-1.72.4 3.81zm-4.889 3.25a5.85 5.85 0 0 1 .389-1.264c.464-1.024 1.135-1.543 2.004-1.54l.135.006c.877.058 1.54.594 1.976 1.594.202.466.305.93.356 1.217l-4.86-.013zm-92.098 52.314c.059-.289.171-.754.379-1.22.447-.992 1.099-1.494 1.939-1.489l.13.004c.848.057 1.491.575 1.914 1.543.192.45.294.897.341 1.177l-4.703-.015zm252.715-76.141.009-3.105v-.039l.016-9.04v-.164l.016-9.028.002-.072.013-6.097h.284l.003-.959-1.178-.003-8.061-13.028-8.897 12.638h-.003l-.237.341-.746-.004-.001.961h.285v.175l-.056 27.372-4.68-.013-.002 1.402.414.003-.026 14.212-5.1-7.487-12.754-.037-3.224 4.663.016-7.906.003-1.037.591.003-8.388-12.311-12.752-.036-8.483 12.264h.588l-.015 9.141-7.622-8.829-16.16-.044-4.664 5.324.018-22.633h.178l.002-.551-.645-.003v-.008l.375.003v-.299h.173l.005-.761h-.178l.008-2.143-.776-.002-.532-.002c-.674-1.358-1.446-3.185-1.959-5.274l.005-.368v-.379h-.194l.014-5.623h.188l.003-.761-.476-.003-.067-.142-.036-.076c-.716-1.592-2.613-6.204-3.452-11.952h.135v-.592h-.327v-.008l-.016.002h-.022v-.853l.368.001.002-.474-.37-.002v-.592l-.126-.133-.128.133v.592l-.366-.001v.473h.366v.856l-.02-.002v.006h-.348l-.002.591h.161c-.855 5.728-2.74 10.319-3.461 11.919l-.048.102-.055.135-.48-.001v.761h.189l-.01 5.621-.191-.001v.381l-.003.364c-.525 2.09-1.306 3.912-1.988 5.27l-.921-.003-.773-.003-.01 3.202.22.002v.008h-.648l-.002.548.18.002v.966l-.03 26.368h-.178l-.002.552.431.002v.098l.216.002-.003 2.562-.349-.002v.629l.347.001-.018 30.139h-.222v.264l-.126-.001v.316h.346v.204h-.346l-.002.202v.527h.126v.06l-3.796-.009-8.277-32.154.016-6.701v-.072l.015-8.401h.388v-1.298l-1.59-.004-.288-.458-10.581-17.108-12.008 17.042-.32.462-1.004-.004v1.294l.384.002v.233l-.044 21.547-1.499-.007-1.808-17.133h.258l.056-.071v-.409l-.056-.07-.159-.002v-.284l-.061-.07-.172-.001v-.231l-.063-.07-.809-.003.004-2.765.161-.231c0-.145-.099-.263-.219-.263-.122 0-.222.118-.222.26l.164.232-.007 2.767-.8-.001-.057.07-.004.228h-.187l-.059.072-.002.283h-.162l-.057.071-.003.41.06.071h.26l-1.878 17.124h-.388l.012-5.925h.149l.005-.511-3.632-.009-6.52-.018.006-2.037v-.244l.398.003.002-1.348-4.492-.014.005-2.981v-.18l.016-8.54.003-.181.013-8.539v-.183l.015-5.685v-.169l.276.001v-.923l-1.131-.002-7.744-12.511-8.548 12.14-.228.325-.716-.002v.921l.273.003-.053 58.586-1.484-.004.003-1.71h.169v-.534h-.623v-.009l.364.001.006-3.1h-.747l-13.704-.033-.747-.001-.009 3.096h.212v.009h-.624v.532h.167v.935l-.027 11.725h-.168l-.003.536h.412v.097h.212l-.005 2.476h-.335v.61h.334l-.016 7.926h-.214v.254h-.124v.306h.332v.199h-.332V318.449l.123.002v.056l-3.673-.01-8.007-.021.012-6.485v-.067l.017-8.129.374.001v-1.251l-1.536-.006-.278-.444-10.233-16.547-11.616 16.485-.308.443-.971-.003v1.254h.371l-.003.225-.042 20.84-1.447-.004-1.751-16.572.248.001.055-.069.004-.397-.059-.067h-.152v-.275l-.057-.073h-.169v-.221l-.059-.067-.781-.003.002-2.674.158-.224c0-.142-.095-.255-.212-.255-.118 0-.215.113-.215.251l.155.226-.004 2.676-.772-.002-.058.069v.22h-.184l-.058.069-.003.275h-.153l-.055.069-.003.395.058.069h.249l-1.82 16.564h-.372l.012-5.732h.145l.003-.494-3.512-.011-6.305-.016.006-1.969v-.238l.386.003.001-1.303-4.345-.012.004-2.886v-.174l.017-8.26.001-.173.015-8.259v-.177l.013-5.5v-.161l.264.002v-.893h-1.092l-7.488-12.105-6.481 9.204.028-12.932v-.388l.637.002.004-2.156-7.182-.02.005-4.765v-.061l.031-28.119v-.251l.026-13.86v-.116l.02-9.353h.435l.007-1.472-1.807-.005-12.373-19.998-13.663 19.402-.368.522-1.141-.004v1.474h.434v.266l-.082 56.259-7.186-.017v2.152l.636.004-.044 28.453-7.829-8.555-19.579-.056-4.946 7.156.025-12.132.003-1.593.902.004-12.874-18.899-5.183-.014.016-8.828v-.259l.015-22.373v-.24l.392.001.002-1.32-4.402-.011.009-2.92v-.037l.015-8.5v-.156l.013-8.491v-.07l.016-5.734.267.003.002-.904-1.109-.004-7.579-12.251-8.37 11.887-.226.32-.7-.004v.904h.267v.164l-.052 25.745-4.404-.014-.003 1.321.391.001-.023 27.612-4.797-7.042-11.996-.035-3.031 4.384.014-7.433v-.975l.558.001-7.889-11.58-11.993-.032-7.98 11.534h.554l-.016 8.6-7.168-8.307-15.197-.041-4.388 5.008.017-7.892h.168l.003-.518-.612-.001v-.007h.355l.002-.28h.164v-.716h-.164l.003-2.016-.728-.001-.495-.003a24.167 24.167 0 0 1-1.845-4.961v-.345l.003-.356h-.183l.013-5.291.179.003.003-.716-.45-.003-.062-.135-.032-.07c-.674-1.498-2.46-5.835-3.247-11.243l.125.001v-.557h-.305v-.007l-.017.003v-.001l-.022.001.003-.804h.344l.003-.447h-.347v-.556l-.117-.126-.122.126-.004.556-.341-.001v.447h.341v.804l-.016-.002v.006l-.328-.002-.001.558h.152c-.805 5.386-2.58 9.705-3.257 11.21l-.044.096-.055.126h-.448l-.001.716h.177l-.009 5.288-.179-.003v.359l-.004.342c-.495 1.966-1.227 3.678-1.868 4.955l-.865-.003-.728-.001-.011 3.012.207.003v.005h-.608l-.002.517h.166l-.003.908-.021 11.407h-.17l-.002.517.406.002v.094h.204l-.002 2.408h-.33v.592l.327.002-.016 7.706h-.207l-.002.247h-.118v.297h.323v.194h-.323l-.002.19v.495h.117v10.191h-.02l-.097 47.206c-2.05.814-1.767 4.499.862 4.499h487.882c1.558 0 2.288-1.301 2.197-2.528h.015l.016-18.792v-.093l.025-41.612v-.096l.025-13.156v-.276l.016-8.643v-.253h.415l.004-1.402-4.68-.013z" fill="#fff"/></mask><g mask="url(#e)"><path d="m371.221 324.581.014-5.568.113.002v.154l-.011 5.023v.552h-.116v-.163zm10.483-2.748.008-.002.003-.002 4.757.014.313 2.945h-.245a5.33 5.33 0 0 0-.356-1.237c-.435-1.003-1.129-1.562-2.008-1.62-.937-.064-1.697.478-2.181 1.558-.227.499-.34.991-.395 1.284h-.219l.323-2.94zm.431-3.902 1.869 1.678-2.279 2.04.41-3.718zm.429-3.928 1.464 1.622-1.867 2.047.403-3.669zm.424-3.879 1.047 1.519-1.439 2.07.392-3.589zm.2-1.816.825.692-.989.823.164-1.515zm-.293-.237v-.259l.154.001h.111l2.18.007v.26l-2.445-.009zm.213-.599 2.021.004v.207l-1.013-.004-1.012-.002.004-.205zm.239-.291 1.556.004v.147l-1.556-.004v-.147zm1.854 2.648-.986-.829.826-.687.16 1.516zm.41 3.895-1.424-2.081 1.049-1.514.375 3.595zm.418 3.939-1.83-2.038 1.45-1.592.38 3.63zm.311 4.041-4.472-.012 2.233-1.995 2.239 2.007zm-.435-3.795-1.804 1.616-1.808-1.625 3.612.009zm.055-.137-3.708-.012 1.863-2.039 1.845 2.051zm-.432-3.797-1.413 1.556-1.412-1.562 2.825.006zm.015-.136-2.878-.008 1.446-2.079 1.432 2.087zm-.396-3.796-1.036 1.489-1.028-1.493 2.064.004zm-1.848-1.812 1.636.002-.819.682-.817-.684zm1.792 1.674-1.959-.005.984-.815.975.82zm1.362 11.727-2.254-2.023 1.862-1.662.392 3.685zm76.508-49.373.012-5.756h.116v.162l-.009 5.191v.572h-.119v-.169zm10.835-2.84.009-.003.006-.003 4.917.016.323 3.043h-.251a5.536 5.536 0 0 0-.372-1.279c-.448-1.036-1.169-1.614-2.075-1.674-.969-.066-1.753.494-2.258 1.61a5.957 5.957 0 0 0-.403 1.33h-.229l.333-3.04zm.444-4.038 1.939 1.738-2.362 2.11.423-3.848zm.448-4.061 1.511 1.681-1.927 2.116.416-3.797zm.439-4.008 1.081 1.569-1.488 2.144.407-3.713zm.206-1.879.851.716-1.021.851.17-1.567zm-.304-.241v-.268h.276l2.252.007v.265l-2.528-.004zm.222-.62 2.086.005v.21l-1.045-.004-1.044-.003.003-.208zm.246-.303 1.608.003v.153l-1.608-.005v-.151zm1.916 2.736-1.018-.856.852-.712.166 1.568zm.43 4.026-1.479-2.15 1.087-1.564.392 3.714zm.43 4.073-1.897-2.103 1.496-1.645.401 3.748zm.316 4.181-4.621-.014 2.311-2.06 2.31 2.074zm-.445-3.924-1.865 1.668-1.874-1.678 3.739.01zm.053-.142-3.832-.01 1.924-2.11 1.908 2.12zm-.446-3.924-1.462 1.609-1.457-1.616 2.919.007zm.016-.142-2.975-.01 1.495-2.147 1.48 2.157zm-.411-3.924-1.069 1.542-1.067-1.547 2.136.005zm-1.913-1.876 1.694.003-.845.707-.849-.71zm1.858 1.732-2.029-.004 1.02-.844 1.009.848zm1.403 12.124-2.325-2.09 1.925-1.72.4 3.81zm-4.889 3.25a5.85 5.85 0 0 1 .389-1.264c.464-1.024 1.135-1.543 2.004-1.54l.135.006c.877.058 1.54.594 1.976 1.594.202.466.305.93.356 1.217l-4.86-.013zm-92.098 52.314c.059-.289.171-.754.379-1.22.447-.992 1.099-1.494 1.939-1.489l.13.004c.848.057 1.491.575 1.914 1.543.192.45.294.897.341 1.177l-4.703-.015zm252.715-76.141.009-3.105v-.039l.016-9.04v-.164l.016-9.028.002-.072.013-6.097h.284l.003-.959-1.178-.003-8.061-13.028-8.897 12.638h-.003l-.237.341-.746-.004-.001.961h.285v.175l-.056 27.372-4.68-.013-.002 1.402.414.003-.026 14.212-5.1-7.487-12.754-.037-3.224 4.663.016-7.906.003-1.037.591.003-8.388-12.311-12.752-.036-8.483 12.264h.588l-.015 9.141-7.622-8.829-16.16-.044-4.664 5.324.018-22.633h.178l.002-.551-.645-.003v-.008l.375.003v-.299h.173l.005-.761h-.178l.008-2.143-.776-.002-.532-.002c-.674-1.358-1.446-3.185-1.959-5.274l.005-.368v-.379h-.194l.014-5.623h.188l.003-.761-.476-.003-.067-.142-.036-.076c-.716-1.592-2.613-6.204-3.452-11.952h.135v-.592h-.327v-.008l-.016.002h-.022v-.853l.368.001.002-.474-.37-.002v-.592l-.126-.133-.128.133v.592l-.366-.001v.473h.366v.856l-.02-.002v.006h-.348l-.002.591h.161c-.855 5.728-2.74 10.319-3.461 11.919l-.048.102-.055.135-.48-.001v.761h.189l-.01 5.621-.191-.001v.381l-.003.364c-.525 2.09-1.306 3.912-1.988 5.27l-.921-.003-.773-.003-.01 3.202.22.002v.008h-.648l-.002.548.18.002v.966l-.03 26.368h-.178l-.002.552.431.002v.098l.216.002-.003 2.562-.349-.002v.629l.347.001-.018 30.139h-.222v.264l-.126-.001v.316h.346v.204h-.346l-.002.202v.527h.126v.06l-3.796-.009-8.277-32.154.016-6.701v-.072l.015-8.401h.388v-1.298l-1.59-.004-.288-.458-10.581-17.108-12.008 17.042-.32.462-1.004-.004v1.294l.384.002v.233l-.044 21.547-1.499-.007-1.808-17.133h.258l.056-.071v-.409l-.056-.07-.159-.002v-.284l-.061-.07-.172-.001v-.231l-.063-.07-.809-.003.004-2.765.161-.231c0-.145-.099-.263-.219-.263-.122 0-.222.118-.222.26l.164.232-.007 2.767-.8-.001-.057.07-.004.228h-.187l-.059.072-.002.283h-.162l-.057.071-.003.41.06.071h.26l-1.878 17.124h-.388l.012-5.925h.149l.005-.511-3.632-.009-6.52-.018.006-2.037v-.244l.398.003.002-1.348-4.492-.014.005-2.981v-.18l.016-8.54.003-.181.013-8.539v-.183l.015-5.685v-.169l.276.001v-.923l-1.131-.002-7.744-12.511-8.548 12.14-.228.325-.716-.002v.921l.273.003-.053 58.586-1.484-.004.003-1.71h.169v-.534h-.623v-.009l.364.001.006-3.1h-.747l-13.704-.033-.747-.001-.009 3.096h.212v.009h-.624v.532h.167v.935l-.027 11.725h-.168l-.003.536h.412v.097h.212l-.005 2.476h-.335v.61h.334l-.016 7.926h-.214v.254h-.124v.306h.332v.199h-.332V318.449l.123.002v.056l-3.673-.01-8.007-.021.012-6.485v-.067l.017-8.129.374.001v-1.251l-1.536-.006-.278-.444-10.233-16.547-11.616 16.485-.308.443-.971-.003v1.254h.371l-.003.225-.042 20.84-1.447-.004-1.751-16.572.248.001.055-.069.004-.397-.059-.067h-.152v-.275l-.057-.073h-.169v-.221l-.059-.067-.781-.003.002-2.674.158-.224c0-.142-.095-.255-.212-.255-.118 0-.215.113-.215.251l.155.226-.004 2.676-.772-.002-.058.069v.22h-.184l-.058.069-.003.275h-.153l-.055.069-.003.395.058.069h.249l-1.82 16.564h-.372l.012-5.732h.145l.003-.494-3.512-.011-6.305-.016.006-1.969v-.238l.386.003.001-1.303-4.345-.012.004-2.886v-.174l.017-8.26.001-.173.015-8.259v-.177l.013-5.5v-.161l.264.002v-.893h-1.092l-7.488-12.105-6.481 9.204.028-12.932v-.388l.637.002.004-2.156-7.182-.02.005-4.765v-.061l.031-28.119v-.251l.026-13.86v-.116l.02-9.353h.435l.007-1.472-1.807-.005-12.373-19.998-13.663 19.402-.368.522-1.141-.004v1.474h.434v.266l-.082 56.259-7.186-.017v2.152l.636.004-.044 28.453-7.829-8.555-19.579-.056-4.946 7.156.025-12.132.003-1.593.902.004-12.874-18.899-5.183-.014.016-8.828v-.259l.015-22.373v-.24l.392.001.002-1.32-4.402-.011.009-2.92v-.037l.015-8.5v-.156l.013-8.491v-.07l.016-5.734.267.003.002-.904-1.109-.004-7.579-12.251-8.37 11.887-.226.32-.7-.004v.904h.267v.164l-.052 25.745-4.404-.014-.003 1.321.391.001-.023 27.612-4.797-7.042-11.996-.035-3.031 4.384.014-7.433v-.975l.558.001-7.889-11.58-11.993-.032-7.98 11.534h.554l-.016 8.6-7.168-8.307-15.197-.041-4.388 5.008.017-7.892h.168l.003-.518-.612-.001v-.007h.355l.002-.28h.164v-.716h-.164l.003-2.016-.728-.001-.495-.003a24.167 24.167 0 0 1-1.845-4.961v-.345l.003-.356h-.183l.013-5.291.179.003.003-.716-.45-.003-.062-.135-.032-.07c-.674-1.498-2.46-5.835-3.247-11.243l.125.001v-.557h-.305v-.007l-.017.003v-.001l-.022.001.003-.804h.344l.003-.447h-.347v-.556l-.117-.126-.122.126-.004.556-.341-.001v.447h.341v.804l-.016-.002v.006l-.328-.002-.001.558h.152c-.805 5.386-2.58 9.705-3.257 11.21l-.044.096-.055.126h-.448l-.001.716h.177l-.009 5.288-.179-.003v.359l-.004.342c-.495 1.966-1.227 3.678-1.868 4.955l-.865-.003-.728-.001-.011 3.012.207.003v.005h-.608l-.002.517h.166l-.003.908-.021 11.407h-.17l-.002.517.406.002v.094h.204l-.002 2.408h-.33v.592l.327.002-.016 7.706h-.207l-.002.247h-.118v.297h.323v.194h-.323l-.002.19v.495h.117v10.191h-.02l-.097 47.206c-2.05.814-1.767 4.499.862 4.499h487.882c1.558 0 2.288-1.301 2.197-2.528h.015l.016-18.792v-.093l.025-41.612v-.096l.025-13.156v-.276l.016-8.643v-.253h.415l.004-1.402-4.68-.013z" fill="url(#f)"/></g><path d="m286.032 317.791-31.06-.075-4.532 15.372-.079.115 7.227.017 11.085.027 1.159.001 1.159.003 18.308.045-.079-.119-3.188-15.386zM516.597 317.791l-31.06-.075-4.53 15.372-.076.115 7.224.017 11.084.027 1.158.001 1.16.003 18.308.045-.08-.119-3.188-15.386z" fill="#25221F"/><path d="M589.272 271.887h-5.366v-14.315a94.238 94.238 0 0 0 5.366 1.735v12.58zm-6.122 0h-7.811v-17.846a92.89 92.89 0 0 0 7.811 3.264v14.582zm-8.567 0h-7.812v-22.424c.5.3.996.602 1.497.892a94.96 94.96 0 0 0 6.315 3.33v18.202zm-8.565 0h-7.814v-28.21a100.617 100.617 0 0 0 7.814 5.334v22.876zm-8.567 0h-7.812v-35.379a108.1 108.1 0 0 0 7.812 6.604v28.775zm-8.567 0h-7.81v-44.23a118.69 118.69 0 0 0 7.81 8.139v36.091zm-8.566 0h-7.811v-55.158a131.89 131.89 0 0 0 4.019 5.434 126.392 126.392 0 0 0 3.792 4.629v45.095zm-8.566 0h-7.814v-68.955a146.93 146.93 0 0 0 7.814 12.709v56.246zm-8.566 0h-7v-19.238h1.073v-4.525h-1.073v-20.227h1.073v-4.525h-1.073v-19.356h1.073v-4.524h-1.073v-13.035c1.438 3.659 3.732 8.958 7 15.082v70.348zm-10.808-84.803v11.123h-19.636v-15.279a4.444 4.444 0 0 1 4.445-4.445h10.745a4.446 4.446 0 0 1 4.446 4.445v4.156zm0 24.703v11.124h-19.636v-15.28a4.445 4.445 0 0 1 4.445-4.446h10.745a4.447 4.447 0 0 1 4.446 4.446v4.156zm0 24.702v11.124h-19.636v-15.28a4.445 4.445 0 0 1 4.445-4.445h10.745a4.446 4.446 0 0 1 4.446 4.445v4.156zm0 24.756v10.642h-19.636v-14.799a4.446 4.446 0 0 1 4.445-4.445h10.745a4.447 4.447 0 0 1 4.446 4.445v4.157zm0 30.544h-.584v.831l-8.31-6.419 8.894-6.808v12.396zm0 16.4h-.584v.706l-8.307-6.419 8.307-6.36v.197h.584v11.876zm-18.796 1.871 8.976-6.873 8.893 6.873h-17.869zm-.84-1.871v-11.876h.486v-.336l8.404 6.494-8.404 6.434v-.716h-.486zm1.414-29.198h16.888l-8.481 6.494-8.407-6.494zm17.382 15.897-8.975 6.872-8.896-6.872h17.871zm-17.958-1.103 8.978-6.873 8.893 6.873H493.58zm-.838-14.457 8.89 6.869-8.404 6.432v-.84h-.486v-12.461zm-3.904-79.836h-1.076v4.524h1.076v19.356h-1.076v4.525h1.076v20.227h-1.076v4.525h1.076v19.238h-7.002v-70.836c3.26-6.015 5.558-11.199 7.002-14.763v13.204zm-7.756 72.395h-7.814v-56.886a149.39 149.39 0 0 0 7.814-12.576v69.462zm-8.566 0H464.7v-45.783a127.618 127.618 0 0 0 3.256-3.936 137.505 137.505 0 0 0 4.56-6.089v55.808zm-8.568 0h-7.812v-36.763a121.573 121.573 0 0 0 7.812-8.151v44.914zm-8.565 0h-7.813v-29.402a111.943 111.943 0 0 0 7.813-6.649v36.051zm-8.568 0h-7.812v-23.43a103.53 103.53 0 0 0 7.812-5.386v28.816zm-8.565 0h-7.814v-18.655a95.772 95.772 0 0 0 7.814-4.301v22.956zm-8.567 0h-7.812v-14.946a95.38 95.38 0 0 0 7.812-3.345v18.291zm-8.568 0h-7.811v-12.184a95.884 95.884 0 0 0 7.811-2.48v14.664zm-8.564 0h-7.813v-10.27a98.388 98.388 0 0 0 7.813-1.704v11.974zm-8.568 0h-7.812v-9.127c2.637-.235 5.24-.577 7.812-1.011v10.138zm-8.565 0h-7.815v-8.716c2.635-.022 5.239-.14 7.815-.352v9.068zm-8.566 0h-7.813v-8.986c2.524.183 5.073.284 7.655.284l.158-.002v8.704zm-8.568 0h-7.81v-9.956c2.566.406 5.174.704 7.81.912v9.044zm-8.565 0h-7.813v-11.716a97.389 97.389 0 0 0 7.813 1.63v10.086zm-8.568 0h-7.811v-14.315a93.59 93.59 0 0 0 7.811 2.413v11.902zm-8.565 0h-7.814v-17.846a93.09 93.09 0 0 0 7.814 3.264v14.582zm-8.567 0h-7.813v-22.424c.497.3.996.601 1.497.892a94.737 94.737 0 0 0 6.316 3.33v18.202zm-8.568 0h-7.809v-28.21a100.521 100.521 0 0 0 7.809 5.334v22.876zm-8.565 0h-7.812v-35.379a108.832 108.832 0 0 0 7.812 6.604v28.775zm-8.568 0h-7.81v-44.23a118.69 118.69 0 0 0 7.81 8.139v36.091zm-8.566 0h-7.812v-55.156a133.33 133.33 0 0 0 4.022 5.432 126.577 126.577 0 0 0 3.79 4.63v45.094zm-8.564 0h-7.813v-68.954c2.188 4 4.783 8.307 7.813 12.71v56.244zm-8.566 0h-7.054v-19.238h1.078v-4.525h-1.078v-20.227h1.078v-4.525h-1.078v-19.356h1.078v-4.524h-1.078v-13.161c1.438 3.661 3.746 9.012 7.054 15.209v70.347zm-10.862-84.803v11.123h-19.632v-15.279a4.445 4.445 0 0 1 4.446-4.445h10.742a4.443 4.443 0 0 1 4.444 4.445v4.156zm0 24.703v11.124h-19.632v-15.28a4.446 4.446 0 0 1 4.446-4.446h10.742a4.444 4.444 0 0 1 4.444 4.446v4.156zm0 24.702v11.124h-19.632v-15.28a4.446 4.446 0 0 1 4.446-4.445h10.742a4.444 4.444 0 0 1 4.444 4.445v4.156zm0 24.756v10.642h-19.632v-14.799a4.446 4.446 0 0 1 4.446-4.445h10.742a4.445 4.445 0 0 1 4.444 4.445v4.157zm0 30.544h-.582v.831l-8.306-6.419 8.888-6.808v12.396zm0 16.4h-.582v.706l-8.306-6.419 8.306-6.36v.197h.582v11.876zm-18.793 1.871 8.976-6.873 8.896 6.873h-17.872zm-.839-1.871v-11.876h.484v-.337l8.404 6.495-8.404 6.436v-.718h-.484zm1.412-29.198h16.888l-8.482 6.494-8.406-6.494zm17.382 15.897-8.976 6.872-8.894-6.872h17.87zm-17.956-1.103 8.977-6.873 8.896 6.873h-17.873zm-.838-14.457 8.888 6.869-8.404 6.434v-.842h-.484v-12.461zm-3.906-79.836h-1.075v4.524h1.075v19.356h-1.075v4.525h1.075v20.227h-1.075v4.525h1.075v19.238h-6.951v-70.836c3.223-5.947 5.505-11.083 6.951-14.643v13.084zm-7.706 72.395h-7.813v-56.886a149.267 149.267 0 0 0 7.813-12.576v69.462zm-8.566 0h-7.812v-45.783c1.1-1.283 2.185-2.592 3.256-3.936a139.758 139.758 0 0 0 4.556-6.089v55.808zm-8.567 0h-7.812v-36.763a123.038 123.038 0 0 0 7.812-8.149v44.912zm-8.567 0h-7.81v-29.402a111.915 111.915 0 0 0 7.81-6.65v36.052zm-8.566 0h-7.812v-23.431a102.623 102.623 0 0 0 7.812-5.385v28.816zm-8.566 0h-7.814v-18.655a95.8 95.8 0 0 0 7.814-4.301v22.956zm-8.566 0h-4.178v-16.406a96.372 96.372 0 0 0 4.178-1.885v18.291zm-30.67-150.963c.17-.867.083-1.933.059-2.755v-.041c.209.117.644-.061.811-.104.473-.117 1.004-.227 1.437-.449.257-.13.571-.104.82-.223.009.219.011.44.028.656.039.481.017.965.039 1.445-1.146.268-2.16.948-3.194 1.471zm-13.118-8.943c-.1.319-.13.626-.163.956-.035.344-.135.692-.125 1.022-.356-.696-.528-1.562-.976-2.191-.062-.457-.164-1.197-.418-1.419-.412-.358-.76-.625-1-1.152l-.084-.03a5.224 5.224 0 0 0-.198-.907l-.071-.072c-.743-1.12-1.553-2.191-2.371-3.256v.077l-.136-.121c-.084-.08-.36-.26-.597-.457-.112-.146-.215-.255-.292-.298l-.048-.068a30.345 30.345 0 0 0-.369-2.778l3.914.677c-.002.711.323 1.189.722 1.703v.001c.178.228.364.461.546.725.112.216.238.422.366.612l.094.195.067.044.015.02a10.178 10.178 0 0 0-.131 2.607l-.003.001.003.032c.116 1.397.635 2.391 1.36 3.228.076.292-.015.569-.105.849zm495.022 200.728v-10.792h-4.072v-53.225h-4.129v-89.485h-1.819v-28.206h-1.544v-30.152h-2.573V97.677h-1.517V93.503h-1.514v-2.707h-2.761v-1.54h-5.668V64.341h1.753v-1.346h-1.753v-1.122h1.753v-2.186h-1.753v-1.6h1.621v-.715h-1.621v-1.004h-5.695L617.847 9h-.581l-.8 47.368h-5.671v1.004h-1.621v.715h1.621v1.6h-1.753v2.186h1.753v1.122h-1.753v1.346h1.753v24.915h-5.668v1.54h-2.76v2.707h-1.515V97.677h-1.514V100.85h-2.575v30.152h-1.543v28.206h-1.821v89.485h-4.127v9.047a92.665 92.665 0 0 1-20.221-8.676c-11.604-6.7-22.136-16.051-31.305-27.788-13.287-17.01-19.848-34.212-21.56-39.131v-2.656h1.073v-4.524h-1.073v-3.645h-.72v-.818h-.598v-1.132h-.682v1.132h-.598v.818h-.72v3.645h-1.074v.125h-18.566v-.125h-1.077v-3.645h-.719v-.818h-.596v-1.132h-.682v1.132h-.599v.818h-.717v3.645h-1.076v4.524h1.076v2.603c-1.75 4.853-8.522 22.077-22.062 39.138-9.325 11.75-19.982 21.11-31.678 27.819-14.608 8.38-30.895 12.628-48.404 12.628-17.499 0-33.719-4.243-48.21-12.613-11.604-6.7-22.134-16.051-31.304-27.788-13.428-17.187-19.982-34.566-21.612-39.276v-2.511h1.078v-4.524h-1.078v-3.645h-.716v-.818h-.6v-1.132h-.682v1.132h-.598v.818h-.717v3.645h-1.077v.125h-18.566v-.125h-1.074v-3.645h-.719v-.818h-.597v-1.132h-.683v1.132h-.599v.818h-.718v3.645h-1.075v4.524h1.075v2.739c-1.828 5.044-8.603 22.108-22.011 39.002-9.325 11.75-19.981 21.11-31.68 27.819a95.052 95.052 0 0 1-9.591 4.791v-4.147h1.29v-2.909h2.897v-4.559h-4.187v-7.172h-5.794l.066-.161.028-.318c-.646-.597 0-1.733-.768-2.241-1.12-.743-1.032-2.989-1.17-4.129-.414-3.404-.838-6.812-1.096-10.232-.104-1.404-.154-2.802-.287-4.204-.056-.596-.148-1.192-.151-1.79v-.008c.986-.512 1.912-1.748 2.076-2.828.151-.993-.169-2.236-.24-3.241-.089-1.232-.12-2.493-.308-3.715-.348-2.254-.43-4.545-.682-6.818.001-3.807-.363-7.648-.796-11.412-.499-4.327-.9-8.651-1.53-12.963-.434-2.968-.928-5.925-1.405-8.885.407-.327.724-.728 1.041-1.158l.135-.172c.377-.396.743-.808 1.095-1.23.402-.43.797-.862 1.136-1.354.836-1.22 1.797-2.37 2.77-3.508l.047.018c.751-.024 2.224.06 2.768-.61.272-.333.443-.76.571-1.213.884-.199 1.353-.679 1.538-1.484.478-.411.862-.82 1.191-1.361.132-.21.339-.511.492-.815l.008.001.181-.1c.431-.573.915-1.073 1.315-1.67.231-.342-.083-.743-.207-1.052l-.028-.059c1.147-1.16 2.228-2.387 3.358-3.564.422-.443 2.042-1.959 1.084-2.488l-.063-.153c-.776-.51-1.839-.716-2.697-1.09-1.355-.59-2.768-1.028-4.131-1.605-.443-.187-.887-.38-1.336-.564l-.008-.001a12.506 12.506 0 0 0-1.661-.566c-.563-.14-1.639-.736-2.198-.62-.429.09-.812.592-1.11.846a49.823 49.823 0 0 0-3.236 2.996l-.184.193-.09-.227-.05-.129-.026-.072-.044-.204-.002-.045.021-.264.008-.044c.02-.111.055-.236.105-.395.106-.329.34-.991-.145-1.191-.377-.152-.295-.129-.703-.176-.964-.109-1.186-1.722-1.433-2.424-.313-.908-.676-1.793-1.023-2.686a55.308 55.308 0 0 1-.374-1.634c-.356-1.66-.982-3.249-1.352-4.909-.09-.403-.143-.939-.368-1.293-.3-.476-1.45-.927-.822-1.81.21-.29.191-1.101-.07-1.382-.28-.302-1.138.104-1.442.166-.26.055-.649.51-.848.078-.112-.242-.149-.758-.41-.908-.412-.232-.636-.098-.868.076-.136-.011-.288.085-.358.19l-.076.079-.244.055.078-.07-.006-.064.002-.004c.669-.973 1.684-1.201 1.984-2.418.093-.384-.018-.826-.171-1.243.407-2.771-.552-5.828-1.251-8.488.53-1.612.484-3.541.1-5.081l-.026-.09c.348-.328.57-.664.697-1.01l.193-.274.008.087 8.926-.843-8.8-2.653v-.003l-.608-.182a10.52 10.52 0 0 0-.622-.788l.126.13 6.416-6.274-9.011 3.702c-.445-.384-.929-.769-1.449-1.141l5.028-8.51-.006.007.047-.078-8.231 6.765a11.089 11.089 0 0 0-1.162-.424l-2.448-10.821-1.418 10.696-.084.024h-.001l-.115.032a8.813 8.813 0 0 0-1.364.452l-6.524-5.902-1.074-.974 4.338 8.988-.232.221-.008-.001c-.233.217-.465.438-.693.669l-9.079-3.704 6.679 6.485c-.24.311-.471.626-.684.947l-5.452 1.28c-.057-.285-.116-.57-.175-.853l-.006-.016c-.238-1.147-.482-2.284-.674-3.388-.636-3.644-1.173-7.302-2.158-10.871l.034-.003c.1-.01.27-.242.106-.26-.05-.005.698-1.661 1.273-3.153.463-.75.845-1.568.776-2.453a4.524 4.524 0 0 0-.159-.835l.007-.021a11.427 11.427 0 0 0-.313-1.692c-.208-.8-.832-1.436-1.198-2.164-.352-.707-.68-1.44-.916-2.194-.089-.282-.117-.532-.306-.621.02-.619.02-1.241-.026-1.844.143-.064.268-.152.378-.261l.178-.086c.116-.062.251-.232.244-.372l-.029-.225c.148-.077.292-.199.435-.336.258-.245.594-.403.902-.573.27-.151.467-.427.75-.544a.427.427 0 0 0 .257-.32c.392-.118.711-.356.665-.826l-.006-.03c.481-.382 1.078-.927.932-1.516-.112-.448-.679-1.084-.598-1.578l.202-.332c.213-.616.753-1.186 1.081-1.838l-.076-.02a4.03 4.03 0 0 0-.364.048 2.088 2.088 0 0 0-.46.061c-.22.05-.616.315-.797.27.013-.169.014-.353-.007-.511l.043-.115.014-.119c-.441.1-.88.198-1.321.291l-.02.021c-.213.11-.419.246-.617.428l-.203.096a2.913 2.913 0 0 0-.413-.544c-.092-.21-.188-.413-.323-.469-.221-.093-.479-.088-.74-.02l-.069-.232c.808-.152 1.564-.656 2.089-1.27.425-.495.641-1.207.803-1.825.232-.88.112-1.998.844-2.668l.029-.185c-.324-.123-.688-.045-1.041.136.4-.985.38-2.261-.158-3.105a6.17 6.17 0 0 0-.302-.438c-1.044-.973-2.102-1.937-3.083-2.97l-.071.068.011.01-.045.056c-.116.342-.092.648-.242 1.012-.093.223-.242.431-.406.632a1.32 1.32 0 0 0-.232-.558l-.212.093c-.403.972-1.576 1.51-2.347 2.299l.001-.008-.021.025c-.137.143-.264.29-.369.453l-.135.283a2.83 2.83 0 0 0-.369-.355l-.167-.126-.131-.082-.08-.05-.145-.062-.084-.036-.137-.021-.078-.012.002.005-.04-.004-.018-.028-.028.167c.488 1.221-.67 2.29-1.386 3.139-.48.568-.746 1.321-.818 2.062l-.008-.034a4.032 4.032 0 0 0-.025.406c-.005 1.446 1.917 2.808 3.317 3.188.01.356.052.704.115 1.051-.207-.317-.449-.652-.701-.576l-.284.092c-.444.007-.908.25-1.256.657a2.3 2.3 0 0 0-.354.358c-.089.116-.454.073-.84.014a2.256 2.256 0 0 0-.496-.074 1.583 1.583 0 0 0-.405-.018l-.267.132c-.183.07-.362.172-.543.318l-.05.053-.07.133c.705.383 1.471.862 1.73 1.616.283.828-.103 1.555-.216 2.331.204.42.42.695.829.883l.003.012c.343.7 1.497 1.305 2.177 1.609.33.147.695.215 1.074.232a.763.763 0 0 0-.028.543c.076.278.562.281.908.26.01.258.025.518.046.78.019.26.003.593.03.9-.134-.015-.268-.028-.387-.044a1.552 1.552 0 0 0-.351-.007l-.113.017-.125.019.03.004c-.754.18-1.204.947-.936 1.741l-.12.158-.058.136c-.292.494-.442 1.148-.582 1.629-.104.367-.154.75-.152 1.132.002.367.055.73.166 1.077l.033.094c.044.132.1.258.164.382l.063.126c.086.15.18.297.289.433l.016.012a8.668 8.668 0 0 0 .205 2.252c.388 1.665 1.595 3.07 2.255 4.659.116.74.152 1.502.192 2.294.04.828.12 1.655.191 2.48 0 .142.006.284.002.427-.07 2.417.271 4.844.438 7.26.152 2.183.37 4.453.994 6.557.256.855.435 1.727.628 2.595.052.311.102.621.144.932-.241.325-.502.637-.766.949-.679.8-1.388 1.579-1.926 2.474-.354.582-1.505 2.305-1.237 3.061.472 1.323 1.292 2.616 2.269 3.785l-.025-.013c.197.239.4.472.612.699.105 1.494-1.331 3.048-.556 4.333.243.401 1.012.56 1.4.691.305.104 1.001.156.839.372-.394.508-.194 1.181.348 1.49 1.502.858.272 1.426-.07 2.626-.218.76 1.248 1.889 1.763 2.189l.175.149.025.058.043.11.005.075-.003.104-.013.1-.023.117h.002c-.036.196-.059.391.134.556.303.258.502.53.646.819.22.448.31.943.406 1.497l.051.272c.284 1.58.697 3.099 1.164 4.598l-.005.009.117.353c.271.858.553 1.711.849 2.562a5.017 5.017 0 0 1-.377.764l-.147.225a8.955 8.955 0 0 1-.333.489l-.217.271c-.118.145-.232.291-.351.432-.131.151-.26.303-.391.453l-.229.264-.001.008c-.678.787-1.315 1.598-1.615 2.584l-.011.084-.006-.01-.011.16-.019.248.031.177.053.259.082.204.085.209c.069.131.144.253.225.363.338.461.687.861 1.099 1.261.884.861 1.053 1.576 1.2 2.757l.051.083c-.152.231-.3.464-.446.704-.77 1.275.94 2.621 1.854 3.375-.254.44-.514.878-.787 1.305-.335.52-.491 1.268-.476 1.876.041 1.648 1.835 1.605.32 3.547-.395.505-.668.87-.509 1.516.101.408.2.824.301 1.237-.939 3.56-1.685 7.204-2.547 10.783-.918 3.818-1.742 7.608-2.281 11.498-.437 3.142-.661 6.271-.813 9.418v-.008l-.003.09a249.157 249.157 0 0 0-.14 3.48c-.005.134-.012.27-.019.403-.154 1.056-.329 2.112-.449 3.169-.228 2.015-.123 4.084-.128 6.108-.007 2.263-.463 4.643-.448 6.936-.037.398-.076.803-.083 1.194l-.041.208c-.052.564.109 1.134.168 1.69.084.784-.26 1.74.052 2.472.009.124.02.25.039.374l.136.096c.186.026.392.03.598.024-.35 2.156-.836 4.344-.885 6.522-.023.988-.008 2.162-.789 2.858-.216.192-.375.45-.448.726l-.207.263h-3.837v7.172h-4.186v4.559h2.896v2.909h1.29v42.832h-1.383v1.505h-1.122v3.446h1.093v23.176h-7.901V325.211H124v9.12h85.336v-9.12h-7.784V320.651h-4.134v-23.176h.03v-3.446h-1.122v-1.505h-1.386v-13.533h63.282v12.798h-1.075v4.524h1.075v11.876h-1.075v4.527h1.075v6.032H262.128v-6.032h.484v-1.168h18.566v1.168h.582v6.032H285.568v-6.032h1.078v-4.527h-1.078v-11.876h1.078v-4.524h-1.078v-12.798H488.838v12.798h-1.076v4.524h1.076v11.876h-1.076v4.527h1.076v6.032h3.904v-6.032h.486v-1.168h18.566v1.168h.584v6.032h3.808v-6.032h1.073v-4.527h-1.073v-11.876h1.073v-4.524h-1.073v-12.798h73.086V301.917h-4.074v10.792h-3.807v21.622h72.769v-21.622h-3.808z" fill="#25221F"/><path class="liberty-flame" d="M146.635 58.73c-.525.614-1.281 1.118-2.089 1.27l-5.082.197c-1.4-.38-3.322-1.742-3.317-3.188 0-.133.011-.269.025-.406l.008.034c.072-.741.338-1.494.818-2.062.716-.848 1.874-1.918 1.386-3.139l.028-.167.018.028.04.004-.002-.005.078.012.137.021.084.036.145.062.08.05.131.082.167.126c.129.103.254.223.369.355l.135-.283c.105-.164.232-.31.369-.453l.021-.025-.001.008c.771-.79 1.944-1.327 2.347-2.299l.212-.093c.128.185.204.37.232.558.164-.201.313-.409.406-.632.15-.364.126-.67.242-1.012l.045-.056-.011-.01.071-.068c.981 1.033 2.039 1.997 3.083 2.97.108.143.208.288.302.438.538.844.558 2.12.158 3.105.353-.181.717-.259 1.041-.136l-.029.185c-.732.67-.612 1.788-.844 2.668-.162.618-.378 1.33-.803 1.826z" fill="#000"/><path d="M765.371 335.941v-3.712H12.365v3.712H765.37z" fill="#25221F"/><mask id="g" style="mask-type:luminance" maskUnits="userSpaceOnUse" x="12" y="335" width="754" height="159"><path d="M97.308 341.583v.085l.252.097-.02-4.045h-.25l.018 3.863zm-15.507 23.27c.12.255.366.67.825 1.08.98.876 2.408 1.323 4.246 1.32l.295-.005c1.852-.049 3.263-.507 4.186-1.364.427-.399.645-.796.749-1.043l-9.481.011-.82.001zm-.034 2.603.02.003.002.001 10.43-.012.684-2.608h-.537a3.126 3.126 0 0 1-.784 1.096c-.952.888-2.474 1.384-4.402 1.435-2.056.056-3.716-.424-4.78-1.38a3.533 3.533 0 0 1-.865-1.138l-.478.002.71 2.601zm.937 3.457 4.103-1.488-4.999-1.805.896 3.293zm.947 3.479 3.205-1.437-4.089-1.815.884 3.252zm.93 3.435 2.291-1.345-3.153-1.835.863 3.18zm.438 1.609 1.807-.613-2.171-.729.364 1.342zm-.644.207.001.229 5.357-.007v-.229l-5.358.007zm.466.532 4.43-.005-.002-.182-4.428.007v.18zm.526.258 3.41-.004v-.129l-3.41.003v.13zm4.067-2.345-2.165.735 1.814.606.35-1.341zm.9-3.449-3.132 1.843 2.302 1.339.83-3.182zm.916-3.49-4.02 1.804 3.18 1.41.84-3.214zm.674-3.578-9.796.01 4.893 1.768 4.903-1.778zm-.948 3.36-3.955-1.428-3.964 1.438 7.92-.01zm.114.122-8.122.011 4.075 1.806 4.047-1.817zm-.943 3.362-3.104-1.378-3.084 1.384 6.188-.006zm.035.121-6.306.007 3.161 1.842 3.145-1.849zm-.879 3.361-2.266-1.317-2.252 1.321 4.518-.004zm-4.044 1.607 3.59-.004-1.798-.603-1.792.607zm3.933-1.484-4.293.005 2.149.722 2.144-.727zm2.977-10.384-4.936 1.789 4.081 1.475.855-3.264zm5.433-17.741v-.063l-.252.061.252.002zm-.183 13.902v.158h.251l-.002-.374-.251.216h.002zm50.392 83.438v-.039l-.136.059c-.084.04-.36.125-.598.22l-.292.141-.048.032a7.567 7.567 0 0 1-.369 1.334l3.915-.325c-.003-.34.322-.57.721-.817.179-.109.364-.221.547-.348.112-.104.237-.202.365-.295l.095-.092.066-.02.015-.009a2.431 2.431 0 0 1-.131-1.252l-.002-.001.002-.016c.116-.668.635-1.144 1.36-1.548.076-.138-.014-.272-.105-.406-.1-.153-.129-.301-.163-.459-.034-.165-.134-.331-.125-.49-.356.335-.528.749-.976 1.052-.061.219-.164.572-.417.68-.412.171-.76.3-1 .553l-.084.012c-.036.15-.108.294-.199.436l-.071.035c-.742.537-1.553 1.051-2.37 1.563zm18.582-6.35v.02c.21-.057.644.03.811.048.473.058 1.004.111 1.437.217.258.062.571.05.82.106l.028-.313c.039-.232.018-.464.039-.693-1.145-.13-2.16-.455-3.193-.707.169.417.082.927.058 1.322zm47.743-59.907v-2.591l-2.467 1.736c.824.282 1.654.561 2.467.855zm8.567 3.471v-9.842l-3.487.004-3.031-2.103.014 3.567v.468l.558-.002-1.865 1.315v3.404c2.669.992 5.277 2.056 7.811 3.189zm8.566 4.25v-14.144l-.057.041-7.755.011v10.182a120.02 120.02 0 0 1 7.812 3.91zm4.011 2.305c1.612.974 3.129 1.953 4.556 2.92v-8.836l-4.192.007-.003-.634.391-.001-.023-13.243-3.985 2.807v15.092c1.1.616 2.185 1.243 3.256 1.888zm20.828 17.152v-6.276h-1.075v-2.169h1.075v-1.322l-5.38 4.174c2.401 2.241 4.183 4.18 5.38 5.593zm8.352-19.896h10.743c2.456 0 4.444-.955 4.444-2.131v-7.328h-18.154l.01 5.511v.115h.392l.002.632-1.882.004v1.066c0 1.176 1.989 2.131 4.445 2.131zm-4.445 7.724v1.993c0 1.178 1.989 2.132 4.445 2.132h10.743c2.456 0 4.444-.954 4.444-2.132V390.648h-19.632v5.336zm0 11.847v1.993c0 1.179 1.989 2.133 4.445 2.133h10.743c2.456 0 4.444-.954 4.444-2.133v-7.327h-19.632v5.334zm23.44-44.08h27.533l-.035-10.878-7.829 4.102-18.592.026v.611h-1.077v6.139zm0 12.634h1.077v2.17h-1.077v9.701h1.077v2.171h-1.077v9.284h1.077v2.169h-1.077v6.314c1.437-1.757 3.745-4.323 7.053-7.295v-33.74h-7.053v9.226zm7.806 23.844a89.513 89.513 0 0 1 7.814-6.094v-26.976h-7.814v33.07zm8.566-6.617a98.19 98.19 0 0 1 4.021-2.605c1.237-.762 2.504-1.5 3.791-2.22v-21.628h-7.812v26.453zm8.568-5.241a113.869 113.869 0 0 1 7.809-3.901v-16.923l-5.843.008v-.396h-1.966v21.212zm9.202-4.52-.05-16.306-.587.002v16.58c.212-.095.425-.184.637-.276zm32.875-9.699v-6.651l-4.449.006.005 2.285v.029l.012 5.175c1.464-.299 2.937-.583 4.432-.844zm8.565-1.286v-5.707h-5.832v.338l-1.978.003v6.524c2.561-.439 5.164-.827 7.81-1.158zm.755-.089a196.53 196.53 0 0 1 7.813-.781v-4.837h-7.813v5.618zm8.568-.844c2.567-.194 5.175-.337 7.811-.437v-4.337h-7.811v4.774zm8.565-.465a224.6 224.6 0 0 1 7.655-.136l.159.001v-4.174h-7.814v4.309zm64.159-7.717-.016-7.903-1.484.003.003.82h.169v.256h-.623v.004h.364l.006 1.485h-.747l-13.704.017-.747.002-.009-1.487h.212v-.004h-.624v-.255h.167v-.448l-.027-5.624h-.168l-.003-.257h.412v-.047h.212l-.005-1.188h-.335v-.292h.334l-.016-3.801h-.214v-.121h-.124v-.148h.332v-.096h-.332V344.329h.123v-.026l-3.673.004-8.007.009.012 3.111v.033l.017 3.899h.374v.6l-1.536.001-.278.213-10.233 7.936-11.616-7.906-.308-.212-.971.001v-.603h.371l-.003-.106-.042-9.995-1.447.001-1.751 7.95.248-.002.055.034.004.19-.059.032h-.152v.132l-.057.034h-.169v.106l-.059.034h-.781l.002 1.282.158.108-.212.122-.215-.12.155-.108-.004-1.284-.772.001-.058-.032v-.107h-.184l-.058-.033-.003-.131h-.153l-.055-.033-.003-.189.058-.034h.249l-1.82-7.944h-.372l.012 2.748h.145l.003.238-3.512.005-6.305.008.006.944v.115l.386-.002.001.624-4.345.007.004 1.384v.083l.017 3.961.001.084.015 3.96v.085l.013 2.639v.077l.264-.001v.428l-1.092.001-6.533 5.066h81.112zm-55.595 7.588c2.635.01 5.239.068 7.815.168v-4.348h-7.815v4.18zm8.568.196c2.638.114 5.24.277 7.812.486v-4.862h-7.812v4.376zm8.567.549c2.637.224 5.244.493 7.813.817v-5.742h-7.813v4.925zm8.567.917c2.641.346 5.248.74 7.81 1.191v-7.033h-7.81v5.842zm8.566 1.327a162.66 162.66 0 0 1 7.812 1.603v-8.772h-7.812v7.169zm8.566 1.777c1.828.431 3.632.89 5.41 1.379.807.223 1.607.452 2.403.684v-11.009h-7.813v8.946zm8.566 2.29c1.423.428 2.83.875 4.223 1.338l-.024-12.574h-4.199v11.236zm24.946 10.304v-17.47l-2.948.006.005 1.429v.087l.016 4.096.003.086.013 4.095v.089l.015 2.726v.081h.276v.442h-1.131l-1.871 1.45c1.92.92 3.794 1.881 5.622 2.883zm4.008 2.305a102.32 102.32 0 0 1 4.56 2.92v-24.446l-.91.002-6.52.008.006.977v.118l.398-.001.002.646-.792.001v17.887c1.104.616 2.189 1.243 3.256 1.888zm13.125 9.469v-33.174l-1.607 7.3h.258l.056.034v.198l-.056.032h-.159V375l-.061.033h-.172v.111l-.063.034-.809.002.004 1.325.161.112c0 .068-.099.126-.219.126-.122 0-.222-.058-.222-.124l.164-.112-.007-1.327h-.8l-.057-.033-.004-.11h-.187l-.059-.036-.002-.135h-.162l-.057-.034-.003-.196.06-.033h.26l-1.704-7.444h-.558l.008 2.072h.149l.005.245-1.97.002v24.963a93.005 93.005 0 0 1 7.813 6.032zm.755.66c3.26 2.884 5.557 5.371 7.001 7.08v-6.333h-1.076v-2.169h1.076v-9.284h-1.076v-2.171h1.076v-7.139l-5.072-3.453-.32-.22-1.004.001v-.62h.384v-.112l-.041-9.554h-.948v33.974zm10.905-15.004c0 1.176 1.989 2.131 4.445 2.131h10.746c2.454 0 4.445-.955 4.445-2.131v-7.328h-7.528l-9.076 7.038-3.032-2.063v2.353zm0 9.855v1.993c0 1.178 1.989 2.132 4.445 2.132h10.746c2.454 0 4.445-.954 4.445-2.132V390.648h-19.636v5.336zm0 11.847v1.993c0 1.179 1.989 2.133 4.445 2.133h10.746c2.454 0 4.445-.954 4.445-2.133v-7.327h-19.636v5.334zm23.444-50.219v6.139h3.936l-.011-8.912h-.222v-.126h-.126v-.15h.346v-.099l-.346.001-.002-.098v-.252h.126v-.03l-3.701.004v1.354h1.073v2.169h-1.073zm0 18.773h1.073v2.17h-1.073v9.701h1.073v2.171h-1.073v9.284h1.073v2.169h-1.073v6.253c1.439-1.755 3.732-4.297 7-7.234v-13.071a11.415 11.415 0 0 0-1.535-1.777l-.921.001h-.773l-.01-1.535h.22v-.005h-.648l-.002-.263.18-.001v-.463l-.03-12.646h-.178l-.002-.266h.431v-.048h.216l-.003-1.228h-.349v-.301l.347-.001-.002-2.136h-3.941v9.226zm11.325 20.887c-.92-2.487-2.604-4.448-3.274-5.164l-.048-.049-.055-.063h-.196v8.235a86.888 86.888 0 0 1 3.573-2.959zm.396 1.248v-.167l-.206.167h.206zm3.846-6.328c-.596.644-1.778 2.056-2.662 3.874a87.128 87.128 0 0 1 2.662-1.93v-1.944zm4.773-1.185c1.237-.762 2.505-1.5 3.792-2.22v-12.904l-4.581-2.51.018 10.858h.178l.002.263-.645.001v.002h.375v.144h.173l.005.364h-.178l.008 1.028-.776.002h-.532c-.632.614-1.346 1.433-1.858 2.361v5.216a98.774 98.774 0 0 1 4.019-2.605zm12.359-6.537v-8.553l-7.811.01v12.444a113.92 113.92 0 0 1 7.811-3.901zm8.566-3.51v-5.548l-.89.495-6.922.009v8.211a124.72 124.72 0 0 1 7.812-3.167zm8.567-2.831v-.402l-2.408-1.669h.588l-.015-4.387-5.978 3.321v5.696c2.544-.918 5.15-1.773 7.813-2.559zm-284.257-5.866v-5.104h-10.07l-2.922 2.057-5.183.008.016 4.233v2.375c.792.343 1.825.555 2.972.555h10.743c2.456 0 4.444-.954 4.444-2.131v-1.993zm-1.048-18.691.008 1.797.457.168v-.094h.583V354.3l-1.048-.728zm-2.844 9.239-1.338.94h3.898l-2.56-.94zm2.86-5.43.009 2.008.003.764.902-.001-3.136 2.209 3.254 1.196v-5.945h-.583v-.399l-.449.168zm-.006-1.254h.199l-.2-.074.001.074zm.004.569.112-.041h-.113l.001.041zm230.51 6.441 1.141.42v-2.548l-1.141 2.128zm-.308.572-.023.042h.139l-.116-.042zm-2.996 12.678c2.454 0 4.445-.954 4.445-2.131v-7.097h-3.3l-1.264 2.353.016 3.213v.035l.012 3.627h.091zm-31.419-9.228c.452.374 1.049.576 1.808.573l.135-.001c.744-.026 1.322-.223 1.752-.572H474.4zm4.328.682.151-.682h-.64c-.452.388-1.094.614-1.886.64-.885.028-1.612-.196-2.113-.64h-.601l.157.686.009.002.006.002 4.917-.008zm-2.549 1.108-2.362-1.012.423 1.845 1.939-.833zm.02 1.975-1.927-1.015.416 1.822 1.511-.807zm.009 1.976-1.488-1.028.407 1.78 1.081-.752zm-.024 1.311-1.021-.408.17.75.851-.342zm.211 0 .852.341.166-.752-1.018.411zm-.031-1.311 1.087.749.392-1.781-1.479 1.032zm.012-1.976 1.496.791.401-1.8-1.897 1.009zm.003-1.975 1.925.826.4-1.83-2.325 1.004zm2.21-1.04-4.621.007 2.311.988 2.31-.995zm-.445 1.881-1.865-.798-1.874.805 3.739-.007zm.053.07-3.832.004 1.924 1.012 1.908-1.016zm-.446 1.884-1.462-.774-1.457.775 2.919-.001zm.016.065-2.975.006 1.495 1.03 1.48-1.036zm-.411 1.883-1.069-.739-1.067.742 2.136-.003zm-1.913.9 1.694-.003-.845-.338-.849.341zm1.858-.832-2.029.003 1.02.403 1.009-.406zm-1.996 1.037 2.252-.001v-.13l-2.528.004v.127h.276zm.192.242v.074l1.608-.002v-.074l-1.608.002zm1.84-.075v-.101l-1.045.002-1.044.001.003.1 2.086-.002zm-14.248-5.798-.006-2.007h-.119l.009 2.086h.116v-.079zm-76.669-27.877-4.703.008a2 2 0 0 0 .379.584c.447.476 1.099.716 1.939.715l.13-.003c.848-.026 1.491-.276 1.914-.738.192-.218.294-.431.341-.566zm.052 1.412.313-1.412h-.245a1.712 1.712 0 0 1-.356.594c-.435.48-1.129.749-2.008.777-.937.029-1.697-.229-2.181-.748a1.907 1.907 0 0 1-.395-.615h-.219l.323 1.41.008.001h.003l4.757-.007zm-2.468 1.072-2.279-.978.41 1.784 1.869-.806zm.024 1.911-1.867-.983.403 1.762 1.464-.779zm.007 1.909-1.439-.992.392 1.722 1.047-.73zm-.022 1.27-.989-.395.164.725.825-.33zm.202 0 .826.328.16-.727-.986.399zm-.028-1.27 1.049.727.375-1.724-1.424.997zm.012-1.909 1.45.763.38-1.74-1.83.977zm0-1.911 1.862.798.392-1.768-2.254.97zm2.141-1.005-4.472.007 2.233.956 2.239-.963zm-.435 1.82-1.804-.773-1.808.778 3.612-.005zm.055.067-3.708.004 1.863.98 1.845-.984zm-.432 1.82-1.413-.746-1.412.75 2.825-.004zm.015.066-2.878.004 1.446.998 1.432-1.002zm-.396 1.82-1.036-.714-1.028.717 2.064-.003zm-1.848.87 1.636-.003-.819-.325-.817.328zm1.792-.803-1.959.001.984.391.975-.392zm-1.931 1.003 2.18-.004v-.124l-2.445.004v.125l.154-.001h.111zm.187.233v.069l1.556-.001v-.071l-1.556.003zm1.782-.072v-.099l-1.013.002-1.012.001.004.099 2.021-.003zm-13.908-8.283v.079l.014 2.671.113-.002v-.073l-.011-2.408v-.267h-.116zm-18.67 22.442h5.38l-5.395-3.674.015 3.674zm408.372-26.031v.233l.402-.001 1.408-.001.011 1.824-1.407.001v.001h-.406l.009 1.5 1.811-.001.008 1.825-1.81.002.007 1.501h.404l1.407-.001.008 1.825-1.808.003.006 1.5.403-.002h1.408l.008 1.824-1.405.002h-.407l.008 1.502h.407l1.406-.002.007 1.824-1.405.002h-.406l.01 1.502h.404l1.402-.002.014 1.824-1.81.003.008 1.501h.4l1.408-.002.01 1.825-1.811.003.007 1.501 1.812-.003.008 1.826-1.812.001.008 1.503.402-.002 1.407-.001.011 1.825-1.407.002h-.404l.008 1.5h.401l1.41-.002.009 1.826-1.812.002.008 1.5 1.812-.001.007 1.824-1.406.003h-.404l.008 1.501 1.811-.001.007 1.822-1.407.003-.401.001.006 1.5 1.81-.001.009 1.825-1.408.001-.401.002.01 2.152-14.197.016-.235-.028-.014-.001-.264-.034-.042-.005a26.999 26.999 0 0 0-.358-.048l-.047-.005-.453-.063-.046-.006-.544-.078-.048-.007c-.198-.029-.412-.06-.637-.095l-.011-.002c-.708-.106-1.524-.237-2.424-.393l-.012-.003c-.292-.051-.593-.104-.902-.16l-.038-.007c-.302-.055-.616-.114-.932-.174l-.054-.01c-.316-.059-.64-.124-.967-.189l-.053-.011c-.331-.068-.668-.137-1.008-.21l-.026-.004a80.528 80.528 0 0 1-5.44-1.344l-.024-.007a75.511 75.511 0 0 1-1.056-.316l-.038-.012c-.35-.108-.691-.219-1.032-.332l-.042-.013c-.341-.115-.68-.234-1.01-.354l-.026-.008c-1.7-.618-3.261-1.314-4.537-2.094l-.021-.014c-.244-.15-.48-.306-.703-.462l-.036-.023a11.747 11.747 0 0 1-.62-.478l-.037-.03a8.145 8.145 0 0 1-.54-.496l-.026-.028a6.104 6.104 0 0 1-.461-.521l-.009-.015c-.438-.565-.724-1.163-.816-1.795l-.066-13.302-1.738.002.009 1.512v.056l.023 4.37h.001v.042l.037 7.443h.342l.002.468-1.422.002-9.722 6.347-10.734-6.159h-.003l-.288-.165-.895.002-.002-.468h.344l-.002-.086h.002l-.067-13.338-5.645.006-.003-.684h.5v-.124l-.037-7.248-6.854 4.066-7.672.009.01 2.095.712-.002-10.118 6-15.382.018-8.52-4.978v20.415h-4.13v42.919h-1.818v13.528h-1.544V449.192h-2.574v1.521h-1.517v2.003h-1.513v1.299h-2.762v.736h-5.668v11.952h1.754v.645h-1.754v.537h1.754v1.05h-1.754v.766h1.622v.344h-1.622v.48h-5.694l-1.214 22.72h-.581l-.8-22.72h-5.671v-.48h-1.621v-.344h1.621v-.766h-1.753v-1.05h1.753v-.537h-1.753v-.645h1.753v-11.952h-5.668v-.736h-2.76v-1.299h-1.514v-2.003h-1.515v-1.521h-2.575V434.731h-1.542v-13.528h-1.822v-42.919h-3.386l-5.168 3.637-12.752.018-4.804-3.331c-10.908 3.174-20.842 7.481-29.543 12.825a94.43 94.43 0 0 0-9.22 6.427v.248h-.313l-.052.04v.372h.368l.002.227-.37.001v.283l-.126.065-.128-.065v-.283h-.366v-.097c-6.583 5.366-10.158 9.9-11.355 11.55v1.274h1.073v2.169h-1.073v1.75h-.72v.391h-.597v.542h-.683v-.542h-.597v-.391h-.72v-1.75h-1.075v-.059h-18.565v.059h-1.078v1.75h-.718v.391h-.596v.542h-.683v-.542h-.599v-.391h-.717v-1.75h-1.076v-2.169h1.076v-1.248c-1.749-2.327-8.521-10.59-22.061-18.772a112.206 112.206 0 0 0-9.26-5.01l-5.063 3.923-8.548-5.823-.228-.156-.716.002v-.442l.273-.001-.008-3.335a143.177 143.177 0 0 0-8.129-2.501c-14.608-4.018-30.895-6.056-48.404-6.056-13.704 0-26.617 1.253-38.537 3.722l.016 7.53v.12l.026 6.648v.056l.02 4.487h.435l.007.705-1.807.003-12.373 9.59-13.663-9.305-.368-.251-1.141.003v-.707h.434v-.129l-.03-9.697a110.88 110.88 0 0 0-12.532 6.602c-13.428 8.243-19.983 16.578-21.612 18.838v1.204h1.077v2.169h-1.077v1.75h-.716v.391h-.6v.542h-.683v-.542h-.597v-.391h-.718v-1.75h-1.077v-.059h-18.565v.059h-1.075v1.75h-.719v.391h-.597v.542h-.683v-.542h-.598v-.391h-.719v-1.75h-1.075v-2.169h1.075v-1.314c-.883-1.167-2.924-3.684-6.305-6.883l-.674.525-8.37-5.703-.226-.152-.7.001v-.434h.267v-.079l-.011-2.065a99.873 99.873 0 0 0-5.992-3.916c-7.036-4.254-14.833-7.851-23.262-10.746l-1.967 1.386-11.993.016-1.047-.724h-3.001v3.438h-5.795l.067.077.028.153c-.647.286 0 .83-.768 1.076-1.12.354-1.032 1.433-1.171 1.98-.413 1.632-.837 3.266-1.096 4.908-.104.671-.153 1.342-.287 2.014-.056.287-.148.572-.15.859v.004c.985.245 1.912.839 2.076 1.356.15.477-.17 1.072-.24 1.555-.09.592-.12 1.196-.308 1.781-.348 1.082-.431 2.18-.683 3.271.001 1.825-.363 3.668-.796 5.473-.499 2.076-.9 4.151-1.529 6.219-.435 1.422-.928 2.841-1.406 4.261.407.156.724.349 1.042.554l.134.083c.378.19.743.387 1.095.59.403.206.797.413 1.136.649.836.585 1.797 1.137 2.771 1.683l.046-.01c.751.014 2.224-.028 2.768.295.272.159.443.364.571.581.884.095 1.353.324 1.539.712.477.196.861.394 1.19.652.132.1.339.246.492.391h.008l.182.047c.43.276.914.516 1.314.801.231.164-.082.357-.206.507l-.028.026c1.146.558 2.228 1.146 3.357 1.71.423.213 2.043.94 1.084 1.193l-.063.073c-.776.246-1.838.345-2.697.524-1.355.282-2.768.491-4.131.768-.442.091-.886.184-1.336.271l-.008.003c-.544.104-1.097.201-1.661.27-.563.067-1.639.352-2.197.297-.43-.043-.812-.283-1.111-.406a54.388 54.388 0 0 1-3.236-1.437l-.184-.092-.089.109-.051.061-.025.035-.044.097-.003.023.021.127.008.02.106.189c.105.157.34.476-.146.57-.377.075-.294.065-.702.086-.964.052-1.187.825-1.434 1.163-.313.434-.676.86-1.022 1.289-.132.26-.259.52-.375.781-.356.798-.981 1.56-1.352 2.356-.089.194-.143.451-.368.622-.3.228-1.449.444-.821.866.209.141.19.529-.071.664-.28.144-1.137-.052-1.441-.08-.26-.026-.65-.245-.848-.037-.112.115-.15.363-.411.435-.412.11-.636.047-.868-.036a.654.654 0 0 1-.357-.091l-.076-.038-.244-.027.077.033-.005.032.001.001c.669.467 1.684.575 1.984 1.159.093.185-.017.397-.171.597.407 1.33-.552 2.795-1.25 4.071.529.773.484 1.699.1 2.437l-.027.043c.348.156.571.319.697.484l.194.131.008-.041 8.925.405-8.8 1.273-.608.088a8.576 8.576 0 0 1-.621.377l.125-.062 6.416 3.011-9.011-1.776c-.445.183-.929.369-1.449.546l5.028 4.083-.005-.004.046.037-8.23-3.244c-.387.078-.774.147-1.163.204l-2.448 5.188-1.417-5.129-.084-.012-.002.001-.114-.016c-.216-.027-.432-.054-.64-.088-.247-.037-.49-.082-.724-.128l-6.524 2.829-1.075.468 4.339-4.312-.232-.105h-.008a21.952 21.952 0 0 1-.694-.32l-9.078 1.778 6.678-3.113c-.24-.148-.47-.298-.684-.453l-5.452-.616c-.057.139-.116.275-.174.412l-.007.008c-.237.548-.481 1.093-.673 1.624-.636 1.748-1.174 3.501-2.159 5.213l.035.003c.1.004.269.116.105.123-.049.002.699.799 1.273 1.512.463.36.846.753.776 1.177a1.223 1.223 0 0 1-.158.401l.006.011a3.106 3.106 0 0 1-.313.811c-.208.383-.832.689-1.197 1.037-.352.34-.68.691-.916 1.052-.09.136-.118.256-.307.299.02.295.02.595-.025.884.142.03.268.072.377.125l.179.04.244.18-.03.108c.148.036.292.095.435.162.259.117.595.193.903.274.269.072.466.204.749.261.153.03.237.095.257.154.392.054.711.17.666.396l-.007.015c.481.182 1.079.442.932.726-.112.215-.679.519-.597.756l.201.16c.213.295.753.57 1.081.882l-.076.008c-.129-.003-.249-.013-.364-.022-.146 0-.293-.012-.46-.029-.22-.024-.616-.151-.797-.131l-.007.246.043.055.015.057c-.442-.049-.88-.095-1.322-.139l-.02-.01a3.852 3.852 0 0 1-.617-.206l-.203-.046a2.21 2.21 0 0 1-.413.262c-.092.1-.188.197-.323.224a2.365 2.365 0 0 1-.74.01l-.069.111c.808.073 1.564.315 2.089.61.426.238.642.578.803.876.232.42.112.957.844 1.278l.029.089c-.324.059-.688.022-1.041-.065.4.473.38 1.085-.157 1.489l-.303.21c-1.044.468-2.101.93-3.083 1.424l-.07-.031.01-.005-.045-.028c-.116-.163-.092-.311-.241-.486a1.749 1.749 0 0 0-.407-.302c-.028.09-.104.18-.232.268l-.212-.046c-.403-.465-1.576-.722-2.347-1.101l.002.002-.022-.011a2.38 2.38 0 0 1-.369-.218l-.135-.134c-.114.062-.24.12-.369.169l-.167.061-.13.039-.08.024-.146.029-.084.018-.137.01-.077.006.001-.003-.04.003-.017.012-.028-.08c.488-.586-.671-1.097-1.387-1.504-.48-.274-.745-.634-.817-.991l-.008.017-.026-.194c-.005-.694 1.918-1.347 3.318-1.53a1.71 1.71 0 0 1 .114-.504c-.206.154-.449.312-.701.276l-.284-.044a2.68 2.68 0 0 1-1.256-.314 2.147 2.147 0 0 1-.353-.172c-.09-.056-.455-.035-.84-.007-.166.02-.33.033-.496.036-.17.01-.312.015-.406.008l-.267-.063a2.886 2.886 0 0 1-.543-.153l-.05-.025-.07-.063c.706-.184 1.472-.415 1.73-.776.283-.398-.102-.747-.216-1.117.204-.202.42-.334.83-.424l.002-.006c.343-.336 1.498-.626 2.178-.773a5.905 5.905 0 0 1 1.073-.109l-.028-.262c.076-.133.563-.134.908-.124.011-.124.025-.249.047-.374.018-.126.002-.286.029-.433-.133.009-.268.016-.387.023a3.424 3.424 0 0 1-.35.003l-.114-.008-.125-.009.031-.003c-.755-.085-1.204-.455-.936-.836l-.12-.075-.059-.064c-.292-.237-.441-.55-.581-.782a1.029 1.029 0 0 1-.152-.543v-.001a.929.929 0 0 1 .165-.516l.033-.044.164-.183.063-.062.289-.206.016-.007a2.12 2.12 0 0 1 .206-1.081c.388-.797 1.594-1.471 2.254-2.233.116-.355.152-.72.192-1.102.04-.397.12-.793.191-1.188l.003-.205c-.071-1.16.27-2.323.437-3.481.152-1.048.371-2.138.995-3.146.256-.41.434-.829.628-1.245.052-.148.101-.296.144-.447a17.076 17.076 0 0 0-.767-.455c-.679-.383-1.388-.758-1.925-1.186-.355-.28-1.506-1.106-1.238-1.468.472-.634 1.292-1.255 2.27-1.816l-.026.007c.198-.115.4-.227.612-.335.106-.716-1.33-1.463-.556-2.08.243-.191 1.012-.267 1.4-.331.306-.049 1.002-.074.839-.178-.393-.243-.193-.567.348-.713 1.503-.413.272-.685-.069-1.261-.219-.365 1.248-.906 1.762-1.049l.175-.073.025-.028.043-.051.005-.036-.002-.051-.014-.048-.022-.056h.001c-.036-.094-.059-.188.135-.268.302-.122.501-.253.645-.392.22-.213.311-.453.407-.718l.05-.13c.284-.757.698-1.486 1.164-2.205l-.005-.004.117-.171a37.2 37.2 0 0 1 .85-1.228 2.442 2.442 0 0 0-.378-.365l-.146-.108-.334-.234-.217-.131-.351-.207-.39-.217-.23-.127-.001-.004c-.677-.379-1.315-.767-1.615-1.24l-.01-.04-.007.005-.011-.077-.018-.119.03-.084.054-.125.081-.097.085-.1.226-.175a8.509 8.509 0 0 1 1.098-.605c.884-.414 1.054-.756 1.2-1.323l.051-.039c-.152-.111-.3-.224-.445-.338-.771-.611.94-1.257 1.853-1.618a18.173 18.173 0 0 0-.787-.626c-.334-.249-.49-.608-.476-.9.042-.79 1.835-.77.32-1.702-.394-.241-.668-.416-.509-.727.101-.195.2-.395.301-.593-.938-1.707-1.685-3.456-2.546-5.17-.919-1.833-1.743-3.651-2.282-5.516-.437-1.507-.661-3.008-.813-4.516v.004l-.003-.044a61.6 61.6 0 0 1-.14-1.67l-.018-.193c-.155-.507-.33-1.012-.45-1.52-.228-.966-.122-1.959-.128-2.931-.006-1.085-.462-2.226-.448-3.325-.037-.191-.076-.385-.082-.572l-.042-.101c-.052-.27.11-.543.168-.81.084-.376-.26-.834.052-1.185l.039-.18.136-.047c.187-.012.392-.013.599-.01-.351-1.035-.836-2.084-.886-3.128-.022-.475-.008-1.038-.789-1.371-.216-.093-.375-.217-.448-.349l-.207-.126h-3.837v-3.438h-4.186v-2.188h2.897v-1.396h1.289v-3.825l-16.576 10.827-19.4-11.127h-.002l-.52-.3-1.619.002-.004-.847h.623v-.151l-.039-7.547-4.515.005-3.845 14.676.545-.001.128.061.003.351-.13.061h-.334v.243l-.129.063-.366.001v.195l-.127.062-1.72.001.014 2.355c.193.029.338.111.338.212.004.124-.209.224-.466.224-.257.001-.468-.1-.468-.223 0-.102.144-.184.34-.213l-.01-2.355-1.69.003-.128-.061-.001-.196h-.403l-.124-.063-.002-.241h-.338l-.127-.062-.001-.35.126-.062h.542l-3.985-14.666-.82.001.027 5.073h.323l.003.437-7.699.009v.001l-13.891.016-.003-.439h.322l-.003-.137-.02-4.448-.004-.488-4.289.004v-.045l-3.534.004.006 1.946h.003v.092l.027 5.602v.099l.027 5.593v.109l.019 3.723h.002v.109h.442l.005.601-1.831.003-12.51 8.168-14.184-8.139h-1.155l-.003-.601h.442l-.085-17.272-7.264.008-.006-.88h.648l-.003-.16-.129-26.124h-3.3v-1.779H765.37v1.779h-4.448z" fill="#fff"/></mask><g mask="url(#g)"><path d="M97.308 341.583v.085l.252.097-.02-4.045h-.25l.018 3.863zm-15.507 23.27c.12.255.366.67.825 1.08.98.876 2.408 1.323 4.246 1.32l.295-.005c1.852-.049 3.263-.507 4.186-1.364.427-.399.645-.796.749-1.043l-9.481.011-.82.001zm-.034 2.603.02.003.002.001 10.43-.012.684-2.608h-.537a3.126 3.126 0 0 1-.784 1.096c-.952.888-2.474 1.384-4.402 1.435-2.056.056-3.716-.424-4.78-1.38a3.533 3.533 0 0 1-.865-1.138l-.478.002.71 2.601zm.937 3.457 4.103-1.488-4.999-1.805.896 3.293zm.947 3.479 3.205-1.437-4.089-1.815.884 3.252zm.93 3.435 2.291-1.345-3.153-1.835.863 3.18zm.438 1.609 1.807-.613-2.171-.729.364 1.342zm-.644.207.001.229 5.357-.007v-.229l-5.358.007zm.466.532 4.43-.005-.002-.182-4.428.007v.18zm.526.258 3.41-.004v-.129l-3.41.003v.13zm4.067-2.345-2.165.735 1.814.606.35-1.341zm.9-3.449-3.132 1.843 2.302 1.339.83-3.182zm.916-3.49-4.02 1.804 3.18 1.41.84-3.214zm.674-3.578-9.796.01 4.893 1.768 4.903-1.778zm-.948 3.36-3.955-1.428-3.964 1.438 7.92-.01zm.114.122-8.122.011 4.075 1.806 4.047-1.817zm-.943 3.362-3.104-1.378-3.084 1.384 6.188-.006zm.035.121-6.306.007 3.161 1.842 3.145-1.849zm-.879 3.361-2.266-1.317-2.252 1.321 4.518-.004zm-4.044 1.607 3.59-.004-1.798-.603-1.792.607zm3.933-1.484-4.293.005 2.149.722 2.144-.727zm2.977-10.384-4.936 1.789 4.081 1.475.855-3.264zm5.433-17.741v-.063l-.252.061.252.002zm-.183 13.902v.158h.251l-.002-.374-.251.216h.002zm50.392 83.438v-.039l-.136.059c-.084.04-.36.125-.598.22l-.292.141-.048.032a7.567 7.567 0 0 1-.369 1.334l3.915-.325c-.003-.34.322-.57.721-.817.179-.109.364-.221.547-.348.112-.104.237-.202.365-.295l.095-.092.066-.02.015-.009a2.431 2.431 0 0 1-.131-1.252l-.002-.001.002-.016c.116-.668.635-1.144 1.36-1.548.076-.138-.014-.272-.105-.406-.1-.153-.129-.301-.163-.459-.034-.165-.134-.331-.125-.49-.356.335-.528.749-.976 1.052-.061.219-.164.572-.417.68-.412.171-.76.3-1 .553l-.084.012c-.036.15-.108.294-.199.436l-.071.035c-.742.537-1.553 1.051-2.37 1.563zm18.582-6.35v.02c.21-.057.644.03.811.048.473.058 1.004.111 1.437.217.258.062.571.05.82.106l.028-.313c.039-.232.018-.464.039-.693-1.145-.13-2.16-.455-3.193-.707.169.417.082.927.058 1.322zm47.743-59.907v-2.591l-2.467 1.736c.824.282 1.654.561 2.467.855zm8.567 3.471v-9.842l-3.487.004-3.031-2.103.014 3.567v.468l.558-.002-1.865 1.315v3.404c2.669.992 5.277 2.056 7.811 3.189zm8.566 4.25v-14.144l-.057.041-7.755.011v10.182a120.02 120.02 0 0 1 7.812 3.91zm4.011 2.305c1.612.974 3.129 1.953 4.556 2.92v-8.836l-4.192.007-.003-.634.391-.001-.023-13.243-3.985 2.807v15.092c1.1.616 2.185 1.243 3.256 1.888zm20.828 17.152v-6.276h-1.075v-2.169h1.075v-1.322l-5.38 4.174c2.401 2.241 4.183 4.18 5.38 5.593zm8.352-19.896h10.743c2.456 0 4.444-.955 4.444-2.131v-7.328h-18.154l.01 5.511v.115h.392l.002.632-1.882.004v1.066c0 1.176 1.989 2.131 4.445 2.131zm-4.445 7.724v1.993c0 1.178 1.989 2.132 4.445 2.132h10.743c2.456 0 4.444-.954 4.444-2.132V390.648h-19.632v5.336zm0 11.847v1.993c0 1.179 1.989 2.133 4.445 2.133h10.743c2.456 0 4.444-.954 4.444-2.133v-7.327h-19.632v5.334zm23.44-44.08h27.533l-.035-10.878-7.829 4.102-18.592.026v.611h-1.077v6.139zm0 12.634h1.077v2.17h-1.077v9.701h1.077v2.171h-1.077v9.284h1.077v2.169h-1.077v6.314c1.437-1.757 3.745-4.323 7.053-7.295v-33.74h-7.053v9.226zm7.806 23.844a89.513 89.513 0 0 1 7.814-6.094v-26.976h-7.814v33.07zm8.566-6.617a98.19 98.19 0 0 1 4.021-2.605c1.237-.762 2.504-1.5 3.791-2.22v-21.628h-7.812v26.453zm8.568-5.241a113.869 113.869 0 0 1 7.809-3.901v-16.923l-5.843.008v-.396h-1.966v21.212zm9.202-4.52-.05-16.306-.587.002v16.58c.212-.095.425-.184.637-.276zm32.875-9.699v-6.651l-4.449.006.005 2.285v.029l.012 5.175c1.464-.299 2.937-.583 4.432-.844zm8.565-1.286v-5.707h-5.832v.338l-1.978.003v6.524c2.561-.439 5.164-.827 7.81-1.158zm.755-.089a196.53 196.53 0 0 1 7.813-.781v-4.837h-7.813v5.618zm8.568-.844c2.567-.194 5.175-.337 7.811-.437v-4.337h-7.811v4.774zm8.565-.465a224.6 224.6 0 0 1 7.655-.136l.159.001v-4.174h-7.814v4.309zm64.159-7.717-.016-7.903-1.484.003.003.82h.169v.256h-.623v.004h.364l.006 1.485h-.747l-13.704.017-.747.002-.009-1.487h.212v-.004h-.624v-.255h.167v-.448l-.027-5.624h-.168l-.003-.257h.412v-.047h.212l-.005-1.188h-.335v-.292h.334l-.016-3.801h-.214v-.121h-.124v-.148h.332v-.096h-.332V344.329h.123v-.026l-3.673.004-8.007.009.012 3.111v.033l.017 3.899h.374v.6l-1.536.001-.278.213-10.233 7.936-11.616-7.906-.308-.212-.971.001v-.603h.371l-.003-.106-.042-9.995-1.447.001-1.751 7.95.248-.002.055.034.004.19-.059.032h-.152v.132l-.057.034h-.169v.106l-.059.034h-.781l.002 1.282.158.108-.212.122-.215-.12.155-.108-.004-1.284-.772.001-.058-.032v-.107h-.184l-.058-.033-.003-.131h-.153l-.055-.033-.003-.189.058-.034h.249l-1.82-7.944h-.372l.012 2.748h.145l.003.238-3.512.005-6.305.008.006.944v.115l.386-.002.001.624-4.345.007.004 1.384v.083l.017 3.961.001.084.015 3.96v.085l.013 2.639v.077l.264-.001v.428l-1.092.001-6.533 5.066h81.112zm-55.595 7.588c2.635.01 5.239.068 7.815.168v-4.348h-7.815v4.18zm8.568.196c2.638.114 5.24.277 7.812.486v-4.862h-7.812v4.376zm8.567.549c2.637.224 5.244.493 7.813.817v-5.742h-7.813v4.925zm8.567.917c2.641.346 5.248.74 7.81 1.191v-7.033h-7.81v5.842zm8.566 1.327a162.66 162.66 0 0 1 7.812 1.603v-8.772h-7.812v7.169zm8.566 1.777c1.828.431 3.632.89 5.41 1.379.807.223 1.607.452 2.403.684v-11.009h-7.813v8.946zm8.566 2.29c1.423.428 2.83.875 4.223 1.338l-.024-12.574h-4.199v11.236zm24.946 10.304v-17.47l-2.948.006.005 1.429v.087l.016 4.096.003.086.013 4.095v.089l.015 2.726v.081h.276v.442h-1.131l-1.871 1.45c1.92.92 3.794 1.881 5.622 2.883zm4.008 2.305a102.32 102.32 0 0 1 4.56 2.92v-24.446l-.91.002-6.52.008.006.977v.118l.398-.001.002.646-.792.001v17.887c1.104.616 2.189 1.243 3.256 1.888zm13.125 9.469v-33.174l-1.607 7.3h.258l.056.034v.198l-.056.032h-.159V375l-.061.033h-.172v.111l-.063.034-.809.002.004 1.325.161.112c0 .068-.099.126-.219.126-.122 0-.222-.058-.222-.124l.164-.112-.007-1.327h-.8l-.057-.033-.004-.11h-.187l-.059-.036-.002-.135h-.162l-.057-.034-.003-.196.06-.033h.26l-1.704-7.444h-.558l.008 2.072h.149l.005.245-1.97.002v24.963a93.005 93.005 0 0 1 7.813 6.032zm.755.66c3.26 2.884 5.557 5.371 7.001 7.08v-6.333h-1.076v-2.169h1.076v-9.284h-1.076v-2.171h1.076v-7.139l-5.072-3.453-.32-.22-1.004.001v-.62h.384v-.112l-.041-9.554h-.948v33.974zm10.905-15.004c0 1.176 1.989 2.131 4.445 2.131h10.746c2.454 0 4.445-.955 4.445-2.131v-7.328h-7.528l-9.076 7.038-3.032-2.063v2.353zm0 9.855v1.993c0 1.178 1.989 2.132 4.445 2.132h10.746c2.454 0 4.445-.954 4.445-2.132V390.648h-19.636v5.336zm0 11.847v1.993c0 1.179 1.989 2.133 4.445 2.133h10.746c2.454 0 4.445-.954 4.445-2.133v-7.327h-19.636v5.334zm23.444-50.219v6.139h3.936l-.011-8.912h-.222v-.126h-.126v-.15h.346v-.099l-.346.001-.002-.098v-.252h.126v-.03l-3.701.004v1.354h1.073v2.169h-1.073zm0 18.773h1.073v2.17h-1.073v9.701h1.073v2.171h-1.073v9.284h1.073v2.169h-1.073v6.253c1.439-1.755 3.732-4.297 7-7.234v-13.071a11.415 11.415 0 0 0-1.535-1.777l-.921.001h-.773l-.01-1.535h.22v-.005h-.648l-.002-.263.18-.001v-.463l-.03-12.646h-.178l-.002-.266h.431v-.048h.216l-.003-1.228h-.349v-.301l.347-.001-.002-2.136h-3.941v9.226zm11.325 20.887c-.92-2.487-2.604-4.448-3.274-5.164l-.048-.049-.055-.063h-.196v8.235a86.888 86.888 0 0 1 3.573-2.959zm.396 1.248v-.167l-.206.167h.206zm3.846-6.328c-.596.644-1.778 2.056-2.662 3.874a87.128 87.128 0 0 1 2.662-1.93v-1.944zm4.773-1.185c1.237-.762 2.505-1.5 3.792-2.22v-12.904l-4.581-2.51.018 10.858h.178l.002.263-.645.001v.002h.375v.144h.173l.005.364h-.178l.008 1.028-.776.002h-.532c-.632.614-1.346 1.433-1.858 2.361v5.216a98.774 98.774 0 0 1 4.019-2.605zm12.359-6.537v-8.553l-7.811.01v12.444a113.92 113.92 0 0 1 7.811-3.901zm8.566-3.51v-5.548l-.89.495-6.922.009v8.211a124.72 124.72 0 0 1 7.812-3.167zm8.567-2.831v-.402l-2.408-1.669h.588l-.015-4.387-5.978 3.321v5.696c2.544-.918 5.15-1.773 7.813-2.559zm-284.257-5.866v-5.104h-10.07l-2.922 2.057-5.183.008.016 4.233v2.375c.792.343 1.825.555 2.972.555h10.743c2.456 0 4.444-.954 4.444-2.131v-1.993zm-1.048-18.691.008 1.797.457.168v-.094h.583V354.3l-1.048-.728zm-2.844 9.239-1.338.94h3.898l-2.56-.94zm2.86-5.43.009 2.008.003.764.902-.001-3.136 2.209 3.254 1.196v-5.945h-.583v-.399l-.449.168zm-.006-1.254h.199l-.2-.074.001.074zm.004.569.112-.041h-.113l.001.041zm230.51 6.441 1.141.42v-2.548l-1.141 2.128zm-.308.572-.023.042h.139l-.116-.042zm-2.996 12.678c2.454 0 4.445-.954 4.445-2.131v-7.097h-3.3l-1.264 2.353.016 3.213v.035l.012 3.627h.091zm-31.419-9.228c.452.374 1.049.576 1.808.573l.135-.001c.744-.026 1.322-.223 1.752-.572H474.4zm4.328.682.151-.682h-.64c-.452.388-1.094.614-1.886.64-.885.028-1.612-.196-2.113-.64h-.601l.157.686.009.002.006.002 4.917-.008zm-2.549 1.108-2.362-1.012.423 1.845 1.939-.833zm.02 1.975-1.927-1.015.416 1.822 1.511-.807zm.009 1.976-1.488-1.028.407 1.78 1.081-.752zm-.024 1.311-1.021-.408.17.75.851-.342zm.211 0 .852.341.166-.752-1.018.411zm-.031-1.311 1.087.749.392-1.781-1.479 1.032zm.012-1.976 1.496.791.401-1.8-1.897 1.009zm.003-1.975 1.925.826.4-1.83-2.325 1.004zm2.21-1.04-4.621.007 2.311.988 2.31-.995zm-.445 1.881-1.865-.798-1.874.805 3.739-.007zm.053.07-3.832.004 1.924 1.012 1.908-1.016zm-.446 1.884-1.462-.774-1.457.775 2.919-.001zm.016.065-2.975.006 1.495 1.03 1.48-1.036zm-.411 1.883-1.069-.739-1.067.742 2.136-.003zm-1.913.9 1.694-.003-.845-.338-.849.341zm1.858-.832-2.029.003 1.02.403 1.009-.406zm-1.996 1.037 2.252-.001v-.13l-2.528.004v.127h.276zm.192.242v.074l1.608-.002v-.074l-1.608.002zm1.84-.075v-.101l-1.045.002-1.044.001.003.1 2.086-.002zm-14.248-5.798-.006-2.007h-.119l.009 2.086h.116v-.079zm-76.669-27.877-4.703.008a2 2 0 0 0 .379.584c.447.476 1.099.716 1.939.715l.13-.003c.848-.026 1.491-.276 1.914-.738.192-.218.294-.431.341-.566zm.052 1.412.313-1.412h-.245a1.712 1.712 0 0 1-.356.594c-.435.48-1.129.749-2.008.777-.937.029-1.697-.229-2.181-.748a1.907 1.907 0 0 1-.395-.615h-.219l.323 1.41.008.001h.003l4.757-.007zm-2.468 1.072-2.279-.978.41 1.784 1.869-.806zm.024 1.911-1.867-.983.403 1.762 1.464-.779zm.007 1.909-1.439-.992.392 1.722 1.047-.73zm-.022 1.27-.989-.395.164.725.825-.33zm.202 0 .826.328.16-.727-.986.399zm-.028-1.27 1.049.727.375-1.724-1.424.997zm.012-1.909 1.45.763.38-1.74-1.83.977zm0-1.911 1.862.798.392-1.768-2.254.97zm2.141-1.005-4.472.007 2.233.956 2.239-.963zm-.435 1.82-1.804-.773-1.808.778 3.612-.005zm.055.067-3.708.004 1.863.98 1.845-.984zm-.432 1.82-1.413-.746-1.412.75 2.825-.004zm.015.066-2.878.004 1.446.998 1.432-1.002zm-.396 1.82-1.036-.714-1.028.717 2.064-.003zm-1.848.87 1.636-.003-.819-.325-.817.328zm1.792-.803-1.959.001.984.391.975-.392zm-1.931 1.003 2.18-.004v-.124l-2.445.004v.125l.154-.001h.111zm.187.233v.069l1.556-.001v-.071l-1.556.003zm1.782-.072v-.099l-1.013.002-1.012.001.004.099 2.021-.003zm-13.908-8.283v.079l.014 2.671.113-.002v-.073l-.011-2.408v-.267h-.116zm-18.67 22.442h5.38l-5.395-3.674.015 3.674zm408.372-26.031v.233l.402-.001 1.408-.001.011 1.824-1.407.001v.001h-.406l.009 1.5 1.811-.001.008 1.825-1.81.002.007 1.501h.404l1.407-.001.008 1.825-1.808.003.006 1.5.403-.002h1.408l.008 1.824-1.405.002h-.407l.008 1.502h.407l1.406-.002.007 1.824-1.405.002h-.406l.01 1.502h.404l1.402-.002.014 1.824-1.81.003.008 1.501h.4l1.408-.002.01 1.825-1.811.003.007 1.501 1.812-.003.008 1.826-1.812.001.008 1.503.402-.002 1.407-.001.011 1.825-1.407.002h-.404l.008 1.5h.401l1.41-.002.009 1.826-1.812.002.008 1.5 1.812-.001.007 1.824-1.406.003h-.404l.008 1.501 1.811-.001.007 1.822-1.407.003-.401.001.006 1.5 1.81-.001.009 1.825-1.408.001-.401.002.01 2.152-14.197.016-.235-.028-.014-.001-.264-.034-.042-.005a26.999 26.999 0 0 0-.358-.048l-.047-.005-.453-.063-.046-.006-.544-.078-.048-.007c-.198-.029-.412-.06-.637-.095l-.011-.002c-.708-.106-1.524-.237-2.424-.393l-.012-.003c-.292-.051-.593-.104-.902-.16l-.038-.007c-.302-.055-.616-.114-.932-.174l-.054-.01c-.316-.059-.64-.124-.967-.189l-.053-.011c-.331-.068-.668-.137-1.008-.21l-.026-.004a80.528 80.528 0 0 1-5.44-1.344l-.024-.007a75.511 75.511 0 0 1-1.056-.316l-.038-.012c-.35-.108-.691-.219-1.032-.332l-.042-.013c-.341-.115-.68-.234-1.01-.354l-.026-.008c-1.7-.618-3.261-1.314-4.537-2.094l-.021-.014c-.244-.15-.48-.306-.703-.462l-.036-.023a11.747 11.747 0 0 1-.62-.478l-.037-.03a8.145 8.145 0 0 1-.54-.496l-.026-.028a6.104 6.104 0 0 1-.461-.521l-.009-.015c-.438-.565-.724-1.163-.816-1.795l-.066-13.302-1.738.002.009 1.512v.056l.023 4.37h.001v.042l.037 7.443h.342l.002.468-1.422.002-9.722 6.347-10.734-6.159h-.003l-.288-.165-.895.002-.002-.468h.344l-.002-.086h.002l-.067-13.338-5.645.006-.003-.684h.5v-.124l-.037-7.248-6.854 4.066-7.672.009.01 2.095.712-.002-10.118 6-15.382.018-8.52-4.978v20.415h-4.13v42.919h-1.818v13.528h-1.544V449.192h-2.574v1.521h-1.517v2.003h-1.513v1.299h-2.762v.736h-5.668v11.952h1.754v.645h-1.754v.537h1.754v1.05h-1.754v.766h1.622v.344h-1.622v.48h-5.694l-1.214 22.72h-.581l-.8-22.72h-5.671v-.48h-1.621v-.344h1.621v-.766h-1.753v-1.05h1.753v-.537h-1.753v-.645h1.753v-11.952h-5.668v-.736h-2.76v-1.299h-1.514v-2.003h-1.515v-1.521h-2.575V434.731h-1.542v-13.528h-1.822v-42.919h-3.386l-5.168 3.637-12.752.018-4.804-3.331c-10.908 3.174-20.842 7.481-29.543 12.825a94.43 94.43 0 0 0-9.22 6.427v.248h-.313l-.052.04v.372h.368l.002.227-.37.001v.283l-.126.065-.128-.065v-.283h-.366v-.097c-6.583 5.366-10.158 9.9-11.355 11.55v1.274h1.073v2.169h-1.073v1.75h-.72v.391h-.597v.542h-.683v-.542h-.597v-.391h-.72v-1.75h-1.075v-.059h-18.565v.059h-1.078v1.75h-.718v.391h-.596v.542h-.683v-.542h-.599v-.391h-.717v-1.75h-1.076v-2.169h1.076v-1.248c-1.749-2.327-8.521-10.59-22.061-18.772a112.206 112.206 0 0 0-9.26-5.01l-5.063 3.923-8.548-5.823-.228-.156-.716.002v-.442l.273-.001-.008-3.335a143.177 143.177 0 0 0-8.129-2.501c-14.608-4.018-30.895-6.056-48.404-6.056-13.704 0-26.617 1.253-38.537 3.722l.016 7.53v.12l.026 6.648v.056l.02 4.487h.435l.007.705-1.807.003-12.373 9.59-13.663-9.305-.368-.251-1.141.003v-.707h.434v-.129l-.03-9.697a110.88 110.88 0 0 0-12.532 6.602c-13.428 8.243-19.983 16.578-21.612 18.838v1.204h1.077v2.169h-1.077v1.75h-.716v.391h-.6v.542h-.683v-.542h-.597v-.391h-.718v-1.75h-1.077v-.059h-18.565v.059h-1.075v1.75h-.719v.391h-.597v.542h-.683v-.542h-.598v-.391h-.719v-1.75h-1.075v-2.169h1.075v-1.314c-.883-1.167-2.924-3.684-6.305-6.883l-.674.525-8.37-5.703-.226-.152-.7.001v-.434h.267v-.079l-.011-2.065a99.873 99.873 0 0 0-5.992-3.916c-7.036-4.254-14.833-7.851-23.262-10.746l-1.967 1.386-11.993.016-1.047-.724h-3.001v3.438h-5.795l.067.077.028.153c-.647.286 0 .83-.768 1.076-1.12.354-1.032 1.433-1.171 1.98-.413 1.632-.837 3.266-1.096 4.908-.104.671-.153 1.342-.287 2.014-.056.287-.148.572-.15.859v.004c.985.245 1.912.839 2.076 1.356.15.477-.17 1.072-.24 1.555-.09.592-.12 1.196-.308 1.781-.348 1.082-.431 2.18-.683 3.271.001 1.825-.363 3.668-.796 5.473-.499 2.076-.9 4.151-1.529 6.219-.435 1.422-.928 2.841-1.406 4.261.407.156.724.349 1.042.554l.134.083c.378.19.743.387 1.095.59.403.206.797.413 1.136.649.836.585 1.797 1.137 2.771 1.683l.046-.01c.751.014 2.224-.028 2.768.295.272.159.443.364.571.581.884.095 1.353.324 1.539.712.477.196.861.394 1.19.652.132.1.339.246.492.391h.008l.182.047c.43.276.914.516 1.314.801.231.164-.082.357-.206.507l-.028.026c1.146.558 2.228 1.146 3.357 1.71.423.213 2.043.94 1.084 1.193l-.063.073c-.776.246-1.838.345-2.697.524-1.355.282-2.768.491-4.131.768-.442.091-.886.184-1.336.271l-.008.003c-.544.104-1.097.201-1.661.27-.563.067-1.639.352-2.197.297-.43-.043-.812-.283-1.111-.406a54.388 54.388 0 0 1-3.236-1.437l-.184-.092-.089.109-.051.061-.025.035-.044.097-.003.023.021.127.008.02.106.189c.105.157.34.476-.146.57-.377.075-.294.065-.702.086-.964.052-1.187.825-1.434 1.163-.313.434-.676.86-1.022 1.289-.132.26-.259.52-.375.781-.356.798-.981 1.56-1.352 2.356-.089.194-.143.451-.368.622-.3.228-1.449.444-.821.866.209.141.19.529-.071.664-.28.144-1.137-.052-1.441-.08-.26-.026-.65-.245-.848-.037-.112.115-.15.363-.411.435-.412.11-.636.047-.868-.036a.654.654 0 0 1-.357-.091l-.076-.038-.244-.027.077.033-.005.032.001.001c.669.467 1.684.575 1.984 1.159.093.185-.017.397-.171.597.407 1.33-.552 2.795-1.25 4.071.529.773.484 1.699.1 2.437l-.027.043c.348.156.571.319.697.484l.194.131.008-.041 8.925.405-8.8 1.273-.608.088a8.576 8.576 0 0 1-.621.377l.125-.062 6.416 3.011-9.011-1.776c-.445.183-.929.369-1.449.546l5.028 4.083-.005-.004.046.037-8.23-3.244c-.387.078-.774.147-1.163.204l-2.448 5.188-1.417-5.129-.084-.012-.002.001-.114-.016c-.216-.027-.432-.054-.64-.088-.247-.037-.49-.082-.724-.128l-6.524 2.829-1.075.468 4.339-4.312-.232-.105h-.008a21.952 21.952 0 0 1-.694-.32l-9.078 1.778 6.678-3.113c-.24-.148-.47-.298-.684-.453l-5.452-.616c-.057.139-.116.275-.174.412l-.007.008c-.237.548-.481 1.093-.673 1.624-.636 1.748-1.174 3.501-2.159 5.213l.035.003c.1.004.269.116.105.123-.049.002.699.799 1.273 1.512.463.36.846.753.776 1.177a1.223 1.223 0 0 1-.158.401l.006.011a3.106 3.106 0 0 1-.313.811c-.208.383-.832.689-1.197 1.037-.352.34-.68.691-.916 1.052-.09.136-.118.256-.307.299.02.295.02.595-.025.884.142.03.268.072.377.125l.179.04.244.18-.03.108c.148.036.292.095.435.162.259.117.595.193.903.274.269.072.466.204.749.261.153.03.237.095.257.154.392.054.711.17.666.396l-.007.015c.481.182 1.079.442.932.726-.112.215-.679.519-.597.756l.201.16c.213.295.753.57 1.081.882l-.076.008c-.129-.003-.249-.013-.364-.022-.146 0-.293-.012-.46-.029-.22-.024-.616-.151-.797-.131l-.007.246.043.055.015.057c-.442-.049-.88-.095-1.322-.139l-.02-.01a3.852 3.852 0 0 1-.617-.206l-.203-.046a2.21 2.21 0 0 1-.413.262c-.092.1-.188.197-.323.224a2.365 2.365 0 0 1-.74.01l-.069.111c.808.073 1.564.315 2.089.61.426.238.642.578.803.876.232.42.112.957.844 1.278l.029.089c-.324.059-.688.022-1.041-.065.4.473.38 1.085-.157 1.489l-.303.21c-1.044.468-2.101.93-3.083 1.424l-.07-.031.01-.005-.045-.028c-.116-.163-.092-.311-.241-.486a1.749 1.749 0 0 0-.407-.302c-.028.09-.104.18-.232.268l-.212-.046c-.403-.465-1.576-.722-2.347-1.101l.002.002-.022-.011a2.38 2.38 0 0 1-.369-.218l-.135-.134c-.114.062-.24.12-.369.169l-.167.061-.13.039-.08.024-.146.029-.084.018-.137.01-.077.006.001-.003-.04.003-.017.012-.028-.08c.488-.586-.671-1.097-1.387-1.504-.48-.274-.745-.634-.817-.991l-.008.017-.026-.194c-.005-.694 1.918-1.347 3.318-1.53a1.71 1.71 0 0 1 .114-.504c-.206.154-.449.312-.701.276l-.284-.044a2.68 2.68 0 0 1-1.256-.314 2.147 2.147 0 0 1-.353-.172c-.09-.056-.455-.035-.84-.007-.166.02-.33.033-.496.036-.17.01-.312.015-.406.008l-.267-.063a2.886 2.886 0 0 1-.543-.153l-.05-.025-.07-.063c.706-.184 1.472-.415 1.73-.776.283-.398-.102-.747-.216-1.117.204-.202.42-.334.83-.424l.002-.006c.343-.336 1.498-.626 2.178-.773a5.905 5.905 0 0 1 1.073-.109l-.028-.262c.076-.133.563-.134.908-.124.011-.124.025-.249.047-.374.018-.126.002-.286.029-.433-.133.009-.268.016-.387.023a3.424 3.424 0 0 1-.35.003l-.114-.008-.125-.009.031-.003c-.755-.085-1.204-.455-.936-.836l-.12-.075-.059-.064c-.292-.237-.441-.55-.581-.782a1.029 1.029 0 0 1-.152-.543v-.001a.929.929 0 0 1 .165-.516l.033-.044.164-.183.063-.062.289-.206.016-.007a2.12 2.12 0 0 1 .206-1.081c.388-.797 1.594-1.471 2.254-2.233.116-.355.152-.72.192-1.102.04-.397.12-.793.191-1.188l.003-.205c-.071-1.16.27-2.323.437-3.481.152-1.048.371-2.138.995-3.146.256-.41.434-.829.628-1.245.052-.148.101-.296.144-.447a17.076 17.076 0 0 0-.767-.455c-.679-.383-1.388-.758-1.925-1.186-.355-.28-1.506-1.106-1.238-1.468.472-.634 1.292-1.255 2.27-1.816l-.026.007c.198-.115.4-.227.612-.335.106-.716-1.33-1.463-.556-2.08.243-.191 1.012-.267 1.4-.331.306-.049 1.002-.074.839-.178-.393-.243-.193-.567.348-.713 1.503-.413.272-.685-.069-1.261-.219-.365 1.248-.906 1.762-1.049l.175-.073.025-.028.043-.051.005-.036-.002-.051-.014-.048-.022-.056h.001c-.036-.094-.059-.188.135-.268.302-.122.501-.253.645-.392.22-.213.311-.453.407-.718l.05-.13c.284-.757.698-1.486 1.164-2.205l-.005-.004.117-.171a37.2 37.2 0 0 1 .85-1.228 2.442 2.442 0 0 0-.378-.365l-.146-.108-.334-.234-.217-.131-.351-.207-.39-.217-.23-.127-.001-.004c-.677-.379-1.315-.767-1.615-1.24l-.01-.04-.007.005-.011-.077-.018-.119.03-.084.054-.125.081-.097.085-.1.226-.175a8.509 8.509 0 0 1 1.098-.605c.884-.414 1.054-.756 1.2-1.323l.051-.039c-.152-.111-.3-.224-.445-.338-.771-.611.94-1.257 1.853-1.618a18.173 18.173 0 0 0-.787-.626c-.334-.249-.49-.608-.476-.9.042-.79 1.835-.77.32-1.702-.394-.241-.668-.416-.509-.727.101-.195.2-.395.301-.593-.938-1.707-1.685-3.456-2.546-5.17-.919-1.833-1.743-3.651-2.282-5.516-.437-1.507-.661-3.008-.813-4.516v.004l-.003-.044a61.6 61.6 0 0 1-.14-1.67l-.018-.193c-.155-.507-.33-1.012-.45-1.52-.228-.966-.122-1.959-.128-2.931-.006-1.085-.462-2.226-.448-3.325-.037-.191-.076-.385-.082-.572l-.042-.101c-.052-.27.11-.543.168-.81.084-.376-.26-.834.052-1.185l.039-.18.136-.047c.187-.012.392-.013.599-.01-.351-1.035-.836-2.084-.886-3.128-.022-.475-.008-1.038-.789-1.371-.216-.093-.375-.217-.448-.349l-.207-.126h-3.837v-3.438h-4.186v-2.188h2.897v-1.396h1.289v-3.825l-16.576 10.827-19.4-11.127h-.002l-.52-.3-1.619.002-.004-.847h.623v-.151l-.039-7.547-4.515.005-3.845 14.676.545-.001.128.061.003.351-.13.061h-.334v.243l-.129.063-.366.001v.195l-.127.062-1.72.001.014 2.355c.193.029.338.111.338.212.004.124-.209.224-.466.224-.257.001-.468-.1-.468-.223 0-.102.144-.184.34-.213l-.01-2.355-1.69.003-.128-.061-.001-.196h-.403l-.124-.063-.002-.241h-.338l-.127-.062-.001-.35.126-.062h.542l-3.985-14.666-.82.001.027 5.073h.323l.003.437-7.699.009v.001l-13.891.016-.003-.439h.322l-.003-.137-.02-4.448-.004-.488-4.289.004v-.045l-3.534.004.006 1.946h.003v.092l.027 5.602v.099l.027 5.593v.109l.019 3.723h.002v.109h.442l.005.601-1.831.003-12.51 8.168-14.184-8.139h-1.155l-.003-.601h.442l-.085-17.272-7.264.008-.006-.88h.648l-.003-.16-.129-26.124h-3.3v-1.779H765.37v1.779h-4.448z" fill="url(#h)"/></g><defs><linearGradient id="b" x1="92.717" y1="334.408" x2="92.717" y2="199.569" gradientUnits="userSpaceOnUse"><stop stop-color="#A4A4A3"/><stop offset=".004" stop-color="#A4A4A3"/><stop offset="1" stop-color="#1C1B1A"/></linearGradient><linearGradient id="d" x1="688.444" y1="334.408" x2="688.444" y2="199.571" gradientUnits="userSpaceOnUse"><stop stop-color="#A4A4A3"/><stop offset=".004" stop-color="#A4A4A3"/><stop offset="1" stop-color="#1C1B1A"/></linearGradient><linearGradient id="f" x1="392.709" y1="334.408" x2="392.709" y2="199.571" gradientUnits="userSpaceOnUse"><stop stop-color="#A4A4A3"/><stop offset=".004" stop-color="#A4A4A3"/><stop offset="1" stop-color="#1C1B1A"/></linearGradient><linearGradient id="h" x1="388.868" y1="336.297" x2="388.868" y2="487.496" gradientUnits="userSpaceOnUse"><stop stop-color="#3C3B3D"/><stop offset=".002" stop-color="#3C3B3D"/><stop offset=".994" stop-color="#fff"/><stop offset="1" stop-color="#fff"/></linearGradient></defs></svg>